<mxfile host="app.diagrams.net" modified="2024-05-05T08:15:51.720Z" agent="Mozilla/5.0 (Macintosh; Intel Mac OS X 10_15_7) AppleWebKit/537.36 (KHTML, like Gecko) Chrome/124.0.0.0 Safari/537.36" etag="gFjRvOkK06vUsl88f7ER" version="24.3.1" type="device">
  <diagram id="C5RBs43oDa-KdzZeNtuy" name="Page-1">
    <mxGraphModel dx="2616" dy="2198" grid="1" gridSize="10" guides="1" tooltips="1" connect="1" arrows="1" fold="1" page="1" pageScale="1" pageWidth="827" pageHeight="1169" math="0" shadow="0">
      <root>
        <mxCell id="WIyWlLk6GJQsqaUBKTNV-0" />
        <mxCell id="WIyWlLk6GJQsqaUBKTNV-1" parent="WIyWlLk6GJQsqaUBKTNV-0" />
        <mxCell id="AR9MG2BKAFISzcUvacr6-0" value="Estado" style="swimlane;fontStyle=0;align=center;verticalAlign=top;childLayout=stackLayout;horizontal=1;startSize=26;horizontalStack=0;resizeParent=1;resizeLast=0;collapsible=1;marginBottom=0;rounded=0;shadow=0;strokeWidth=1;" vertex="1" parent="WIyWlLk6GJQsqaUBKTNV-1">
          <mxGeometry x="409" y="770" width="160" height="180" as="geometry">
            <mxRectangle x="230" y="140" width="160" height="26" as="alternateBounds" />
          </mxGeometry>
        </mxCell>
        <mxCell id="AR9MG2BKAFISzcUvacr6-137" value="&lt;column&gt;" style="text;align=left;verticalAlign=top;spacingLeft=4;spacingRight=4;overflow=hidden;rotatable=0;points=[[0,0.5],[1,0.5]];portConstraint=eastwest;" vertex="1" parent="AR9MG2BKAFISzcUvacr6-0">
          <mxGeometry y="26" width="160" height="26" as="geometry" />
        </mxCell>
        <mxCell id="AR9MG2BKAFISzcUvacr6-1" value="Tipo: varchar" style="text;align=left;verticalAlign=top;spacingLeft=4;spacingRight=4;overflow=hidden;rotatable=0;points=[[0,0.5],[1,0.5]];portConstraint=eastwest;" vertex="1" parent="AR9MG2BKAFISzcUvacr6-0">
          <mxGeometry y="52" width="160" height="26" as="geometry" />
        </mxCell>
        <mxCell id="AR9MG2BKAFISzcUvacr6-133" value="*PK: IDEstado: varchar" style="text;align=left;verticalAlign=top;spacingLeft=4;spacingRight=4;overflow=hidden;rotatable=0;points=[[0,0.5],[1,0.5]];portConstraint=eastwest;" vertex="1" parent="AR9MG2BKAFISzcUvacr6-0">
          <mxGeometry y="78" width="160" height="26" as="geometry" />
        </mxCell>
        <mxCell id="AR9MG2BKAFISzcUvacr6-2" value="" style="line;html=1;strokeWidth=1;align=left;verticalAlign=middle;spacingTop=-1;spacingLeft=3;spacingRight=3;rotatable=0;labelPosition=right;points=[];portConstraint=eastwest;" vertex="1" parent="AR9MG2BKAFISzcUvacr6-0">
          <mxGeometry y="104" width="160" height="8" as="geometry" />
        </mxCell>
        <mxCell id="AR9MG2BKAFISzcUvacr6-3" value="&lt;PK&gt; &#xa;+ PK_Estado(varchar)" style="text;align=left;verticalAlign=top;spacingLeft=4;spacingRight=4;overflow=hidden;rotatable=0;points=[[0,0.5],[1,0.5]];portConstraint=eastwest;" vertex="1" parent="AR9MG2BKAFISzcUvacr6-0">
          <mxGeometry y="112" width="160" height="38" as="geometry" />
        </mxCell>
        <mxCell id="AR9MG2BKAFISzcUvacr6-255" value="+FK_DetallePedidoMaterialPrima_MateriaPrima" style="text;html=1;align=center;verticalAlign=middle;resizable=0;points=[];autosize=1;strokeColor=none;fillColor=none;rotation=90;" vertex="1" parent="WIyWlLk6GJQsqaUBKTNV-1">
          <mxGeometry x="990" y="-50" width="280" height="30" as="geometry" />
        </mxCell>
        <mxCell id="AR9MG2BKAFISzcUvacr6-4" value="Cliente" style="swimlane;fontStyle=0;align=center;verticalAlign=top;childLayout=stackLayout;horizontal=1;startSize=26;horizontalStack=0;resizeParent=1;resizeLast=0;collapsible=1;marginBottom=0;rounded=0;shadow=0;strokeWidth=1;" vertex="1" parent="WIyWlLk6GJQsqaUBKTNV-1">
          <mxGeometry x="-120" y="280" width="160" height="290" as="geometry">
            <mxRectangle x="130" y="380" width="160" height="26" as="alternateBounds" />
          </mxGeometry>
        </mxCell>
        <mxCell id="AR9MG2BKAFISzcUvacr6-160" value="&lt;column&gt;" style="text;align=left;verticalAlign=top;spacingLeft=4;spacingRight=4;overflow=hidden;rotatable=0;points=[[0,0.5],[1,0.5]];portConstraint=eastwest;" vertex="1" parent="AR9MG2BKAFISzcUvacr6-4">
          <mxGeometry y="26" width="160" height="26" as="geometry" />
        </mxCell>
        <mxCell id="AR9MG2BKAFISzcUvacr6-5" value="Nombre: varchar" style="text;align=left;verticalAlign=top;spacingLeft=4;spacingRight=4;overflow=hidden;rotatable=0;points=[[0,0.5],[1,0.5]];portConstraint=eastwest;" vertex="1" parent="AR9MG2BKAFISzcUvacr6-4">
          <mxGeometry y="52" width="160" height="26" as="geometry" />
        </mxCell>
        <mxCell id="AR9MG2BKAFISzcUvacr6-6" value="Apellido: varchar" style="text;align=left;verticalAlign=top;spacingLeft=4;spacingRight=4;overflow=hidden;rotatable=0;points=[[0,0.5],[1,0.5]];portConstraint=eastwest;rounded=0;shadow=0;html=0;" vertex="1" parent="AR9MG2BKAFISzcUvacr6-4">
          <mxGeometry y="78" width="160" height="28" as="geometry" />
        </mxCell>
        <mxCell id="AR9MG2BKAFISzcUvacr6-7" value="Documento: varchar" style="text;align=left;verticalAlign=top;spacingLeft=4;spacingRight=4;overflow=hidden;rotatable=0;points=[[0,0.5],[1,0.5]];portConstraint=eastwest;rounded=0;shadow=0;html=0;" vertex="1" parent="AR9MG2BKAFISzcUvacr6-4">
          <mxGeometry y="106" width="160" height="28" as="geometry" />
        </mxCell>
        <mxCell id="AR9MG2BKAFISzcUvacr6-8" value="Dirección: varchar" style="text;align=left;verticalAlign=top;spacingLeft=4;spacingRight=4;overflow=hidden;rotatable=0;points=[[0,0.5],[1,0.5]];portConstraint=eastwest;rounded=0;shadow=0;html=0;" vertex="1" parent="AR9MG2BKAFISzcUvacr6-4">
          <mxGeometry y="134" width="160" height="28" as="geometry" />
        </mxCell>
        <mxCell id="AR9MG2BKAFISzcUvacr6-9" value="Teléfono: varchar" style="text;align=left;verticalAlign=top;spacingLeft=4;spacingRight=4;overflow=hidden;rotatable=0;points=[[0,0.5],[1,0.5]];portConstraint=eastwest;rounded=0;shadow=0;html=0;" vertex="1" parent="AR9MG2BKAFISzcUvacr6-4">
          <mxGeometry y="162" width="160" height="28" as="geometry" />
        </mxCell>
        <mxCell id="AR9MG2BKAFISzcUvacr6-161" value="*PK IDCliente: varchar" style="text;align=left;verticalAlign=top;spacingLeft=4;spacingRight=4;overflow=hidden;rotatable=0;points=[[0,0.5],[1,0.5]];portConstraint=eastwest;rounded=0;shadow=0;html=0;" vertex="1" parent="AR9MG2BKAFISzcUvacr6-4">
          <mxGeometry y="190" width="160" height="28" as="geometry" />
        </mxCell>
        <mxCell id="AR9MG2BKAFISzcUvacr6-10" value="" style="line;html=1;strokeWidth=1;align=left;verticalAlign=middle;spacingTop=-1;spacingLeft=3;spacingRight=3;rotatable=0;labelPosition=right;points=[];portConstraint=eastwest;" vertex="1" parent="AR9MG2BKAFISzcUvacr6-4">
          <mxGeometry y="218" width="160" height="8" as="geometry" />
        </mxCell>
        <mxCell id="AR9MG2BKAFISzcUvacr6-162" value="&lt;PK&gt; &#xa;+ PK_Cliente(varchar)" style="text;align=left;verticalAlign=top;spacingLeft=4;spacingRight=4;overflow=hidden;rotatable=0;points=[[0,0.5],[1,0.5]];portConstraint=eastwest;" vertex="1" parent="AR9MG2BKAFISzcUvacr6-4">
          <mxGeometry y="226" width="160" height="38" as="geometry" />
        </mxCell>
        <mxCell id="AR9MG2BKAFISzcUvacr6-14" value="Orden" style="swimlane;fontStyle=0;align=center;verticalAlign=top;childLayout=stackLayout;horizontal=1;startSize=26;horizontalStack=0;resizeParent=1;resizeLast=0;collapsible=1;marginBottom=0;rounded=0;shadow=0;strokeWidth=1;" vertex="1" parent="WIyWlLk6GJQsqaUBKTNV-1">
          <mxGeometry x="389" y="300" width="200" height="344" as="geometry">
            <mxRectangle x="550" y="140" width="160" height="26" as="alternateBounds" />
          </mxGeometry>
        </mxCell>
        <mxCell id="AR9MG2BKAFISzcUvacr6-141" value="&lt;column&gt;" style="text;align=left;verticalAlign=top;spacingLeft=4;spacingRight=4;overflow=hidden;rotatable=0;points=[[0,0.5],[1,0.5]];portConstraint=eastwest;" vertex="1" parent="AR9MG2BKAFISzcUvacr6-14">
          <mxGeometry y="26" width="200" height="24" as="geometry" />
        </mxCell>
        <mxCell id="AR9MG2BKAFISzcUvacr6-15" value="NroPedido: varchar" style="text;align=left;verticalAlign=top;spacingLeft=4;spacingRight=4;overflow=hidden;rotatable=0;points=[[0,0.5],[1,0.5]];portConstraint=eastwest;" vertex="1" parent="AR9MG2BKAFISzcUvacr6-14">
          <mxGeometry y="50" width="200" height="26" as="geometry" />
        </mxCell>
        <mxCell id="AR9MG2BKAFISzcUvacr6-16" value="Importe: varchar" style="text;align=left;verticalAlign=top;spacingLeft=4;spacingRight=4;overflow=hidden;rotatable=0;points=[[0,0.5],[1,0.5]];portConstraint=eastwest;rounded=0;shadow=0;html=0;" vertex="1" parent="AR9MG2BKAFISzcUvacr6-14">
          <mxGeometry y="76" width="200" height="26" as="geometry" />
        </mxCell>
        <mxCell id="AR9MG2BKAFISzcUvacr6-17" value="Fecha: varchar" style="text;align=left;verticalAlign=top;spacingLeft=4;spacingRight=4;overflow=hidden;rotatable=0;points=[[0,0.5],[1,0.5]];portConstraint=eastwest;rounded=0;shadow=0;html=0;" vertex="1" parent="AR9MG2BKAFISzcUvacr6-14">
          <mxGeometry y="102" width="200" height="26" as="geometry" />
        </mxCell>
        <mxCell id="AR9MG2BKAFISzcUvacr6-142" value="*PK IDOrden:varchar" style="text;align=left;verticalAlign=top;spacingLeft=4;spacingRight=4;overflow=hidden;rotatable=0;points=[[0,0.5],[1,0.5]];portConstraint=eastwest;rounded=0;shadow=0;html=0;" vertex="1" parent="AR9MG2BKAFISzcUvacr6-14">
          <mxGeometry y="128" width="200" height="26" as="geometry" />
        </mxCell>
        <mxCell id="AR9MG2BKAFISzcUvacr6-143" value="FK IDCliente: int" style="text;align=left;verticalAlign=top;spacingLeft=4;spacingRight=4;overflow=hidden;rotatable=0;points=[[0,0.5],[1,0.5]];portConstraint=eastwest;rounded=0;shadow=0;html=0;" vertex="1" parent="AR9MG2BKAFISzcUvacr6-14">
          <mxGeometry y="154" width="200" height="26" as="geometry" />
        </mxCell>
        <mxCell id="AR9MG2BKAFISzcUvacr6-145" value="FK IDEstado: varchar" style="text;align=left;verticalAlign=top;spacingLeft=4;spacingRight=4;overflow=hidden;rotatable=0;points=[[0,0.5],[1,0.5]];portConstraint=eastwest;rounded=0;shadow=0;html=0;" vertex="1" parent="AR9MG2BKAFISzcUvacr6-14">
          <mxGeometry y="180" width="200" height="26" as="geometry" />
        </mxCell>
        <mxCell id="AR9MG2BKAFISzcUvacr6-146" value="FK IDFactura: varchar" style="text;align=left;verticalAlign=top;spacingLeft=4;spacingRight=4;overflow=hidden;rotatable=0;points=[[0,0.5],[1,0.5]];portConstraint=eastwest;rounded=0;shadow=0;html=0;" vertex="1" parent="AR9MG2BKAFISzcUvacr6-14">
          <mxGeometry y="206" width="200" height="26" as="geometry" />
        </mxCell>
        <mxCell id="AR9MG2BKAFISzcUvacr6-18" value="" style="line;html=1;strokeWidth=1;align=left;verticalAlign=middle;spacingTop=-1;spacingLeft=3;spacingRight=3;rotatable=0;labelPosition=right;points=[];portConstraint=eastwest;" vertex="1" parent="AR9MG2BKAFISzcUvacr6-14">
          <mxGeometry y="232" width="200" height="8" as="geometry" />
        </mxCell>
        <mxCell id="AR9MG2BKAFISzcUvacr6-19" value="&lt;PK&gt;&#xa;+ PK_Orden(varchar)&#xa;&lt;FK&gt;&#xa;+ FK_Orden_Cliente(int)&#xa;+ FK_Orden_Factura(varchar)&#xa;+ FK_Orden_Estado(varchar)&#xa;" style="text;align=left;verticalAlign=top;spacingLeft=4;spacingRight=4;overflow=hidden;rotatable=0;points=[[0,0.5],[1,0.5]];portConstraint=eastwest;" vertex="1" parent="AR9MG2BKAFISzcUvacr6-14">
          <mxGeometry y="240" width="200" height="104" as="geometry" />
        </mxCell>
        <mxCell id="AR9MG2BKAFISzcUvacr6-24" value="Espera" style="swimlane;fontStyle=0;align=center;verticalAlign=top;childLayout=stackLayout;horizontal=1;startSize=26;horizontalStack=0;resizeParent=1;resizeLast=0;collapsible=1;marginBottom=0;rounded=0;shadow=0;strokeWidth=1;" vertex="1" parent="WIyWlLk6GJQsqaUBKTNV-1">
          <mxGeometry x="170" y="1000" width="170" height="160" as="geometry">
            <mxRectangle x="230" y="140" width="160" height="26" as="alternateBounds" />
          </mxGeometry>
        </mxCell>
        <mxCell id="AR9MG2BKAFISzcUvacr6-178" value="" style="endArrow=open;endFill=1;endSize=12;html=1;rounded=0;entryX=0;entryY=1;entryDx=0;entryDy=0;" edge="1" parent="AR9MG2BKAFISzcUvacr6-24" target="AR9MG2BKAFISzcUvacr6-0">
          <mxGeometry width="160" relative="1" as="geometry">
            <mxPoint x="80" as="sourcePoint" />
            <mxPoint x="240" as="targetPoint" />
          </mxGeometry>
        </mxCell>
        <mxCell id="AR9MG2BKAFISzcUvacr6-138" value="&lt;column&gt;" style="text;align=left;verticalAlign=top;spacingLeft=4;spacingRight=4;overflow=hidden;rotatable=0;points=[[0,0.5],[1,0.5]];portConstraint=eastwest;" vertex="1" parent="AR9MG2BKAFISzcUvacr6-24">
          <mxGeometry y="26" width="170" height="26" as="geometry" />
        </mxCell>
        <mxCell id="AR9MG2BKAFISzcUvacr6-134" value="*Pk/Fk: IDEspera(varchar)" style="text;align=left;verticalAlign=top;spacingLeft=4;spacingRight=4;overflow=hidden;rotatable=0;points=[[0,0.5],[1,0.5]];portConstraint=eastwest;" vertex="1" parent="AR9MG2BKAFISzcUvacr6-24">
          <mxGeometry y="52" width="170" height="26" as="geometry" />
        </mxCell>
        <mxCell id="AR9MG2BKAFISzcUvacr6-25" value="" style="line;html=1;strokeWidth=1;align=left;verticalAlign=middle;spacingTop=-1;spacingLeft=3;spacingRight=3;rotatable=0;labelPosition=right;points=[];portConstraint=eastwest;" vertex="1" parent="AR9MG2BKAFISzcUvacr6-24">
          <mxGeometry y="78" width="170" height="8" as="geometry" />
        </mxCell>
        <mxCell id="AR9MG2BKAFISzcUvacr6-26" value="&lt;PK&gt;&#xa;+ PK_Espera(varchar)&#xa;&lt;FK&gt;&#xa;+ FK_Espera_Estado(varchar)" style="text;align=left;verticalAlign=top;spacingLeft=4;spacingRight=4;overflow=hidden;rotatable=0;points=[[0,0.5],[1,0.5]];portConstraint=eastwest;" vertex="1" parent="AR9MG2BKAFISzcUvacr6-24">
          <mxGeometry y="86" width="170" height="70" as="geometry" />
        </mxCell>
        <mxCell id="AR9MG2BKAFISzcUvacr6-27" value="Finalizado" style="swimlane;fontStyle=0;align=center;verticalAlign=top;childLayout=stackLayout;horizontal=1;startSize=26;horizontalStack=0;resizeParent=1;resizeLast=0;collapsible=1;marginBottom=0;rounded=0;shadow=0;strokeWidth=1;" vertex="1" parent="WIyWlLk6GJQsqaUBKTNV-1">
          <mxGeometry x="680" y="1020" width="180" height="160" as="geometry">
            <mxRectangle x="230" y="140" width="160" height="26" as="alternateBounds" />
          </mxGeometry>
        </mxCell>
        <mxCell id="AR9MG2BKAFISzcUvacr6-140" value="&lt;column&gt;" style="text;align=left;verticalAlign=top;spacingLeft=4;spacingRight=4;overflow=hidden;rotatable=0;points=[[0,0.5],[1,0.5]];portConstraint=eastwest;" vertex="1" parent="AR9MG2BKAFISzcUvacr6-27">
          <mxGeometry y="26" width="180" height="26" as="geometry" />
        </mxCell>
        <mxCell id="AR9MG2BKAFISzcUvacr6-29" value="*Pk/Fk: IDFinalizado(varchar)" style="text;align=left;verticalAlign=top;spacingLeft=4;spacingRight=4;overflow=hidden;rotatable=0;points=[[0,0.5],[1,0.5]];portConstraint=eastwest;" vertex="1" parent="AR9MG2BKAFISzcUvacr6-27">
          <mxGeometry y="52" width="180" height="26" as="geometry" />
        </mxCell>
        <mxCell id="AR9MG2BKAFISzcUvacr6-28" value="" style="line;html=1;strokeWidth=1;align=left;verticalAlign=middle;spacingTop=-1;spacingLeft=3;spacingRight=3;rotatable=0;labelPosition=right;points=[];portConstraint=eastwest;" vertex="1" parent="AR9MG2BKAFISzcUvacr6-27">
          <mxGeometry y="78" width="180" height="8" as="geometry" />
        </mxCell>
        <mxCell id="AR9MG2BKAFISzcUvacr6-136" value="&lt;PK&gt;&#xa;+ PK_Finalizado(varchar)&#xa;&lt;FK&gt;&#xa;+ FK_Finalizado_Estado(varchar)" style="text;align=left;verticalAlign=top;spacingLeft=4;spacingRight=4;overflow=hidden;rotatable=0;points=[[0,0.5],[1,0.5]];portConstraint=eastwest;" vertex="1" parent="AR9MG2BKAFISzcUvacr6-27">
          <mxGeometry y="86" width="180" height="60" as="geometry" />
        </mxCell>
        <mxCell id="AR9MG2BKAFISzcUvacr6-31" value="Material" style="swimlane;fontStyle=0;align=center;verticalAlign=top;childLayout=stackLayout;horizontal=1;startSize=26;horizontalStack=0;resizeParent=1;resizeLast=0;collapsible=1;marginBottom=0;rounded=0;shadow=0;strokeWidth=1;" vertex="1" parent="WIyWlLk6GJQsqaUBKTNV-1">
          <mxGeometry x="1270" y="308" width="200" height="252" as="geometry">
            <mxRectangle x="550" y="140" width="160" height="26" as="alternateBounds" />
          </mxGeometry>
        </mxCell>
        <mxCell id="AR9MG2BKAFISzcUvacr6-173" value="&lt;column&gt;" style="text;align=left;verticalAlign=top;spacingLeft=4;spacingRight=4;overflow=hidden;rotatable=0;points=[[0,0.5],[1,0.5]];portConstraint=eastwest;" vertex="1" parent="AR9MG2BKAFISzcUvacr6-31">
          <mxGeometry y="26" width="200" height="24" as="geometry" />
        </mxCell>
        <mxCell id="AR9MG2BKAFISzcUvacr6-32" value="Nombre: varchar" style="text;align=left;verticalAlign=top;spacingLeft=4;spacingRight=4;overflow=hidden;rotatable=0;points=[[0,0.5],[1,0.5]];portConstraint=eastwest;" vertex="1" parent="AR9MG2BKAFISzcUvacr6-31">
          <mxGeometry y="50" width="200" height="26" as="geometry" />
        </mxCell>
        <mxCell id="AR9MG2BKAFISzcUvacr6-33" value=" Precio: varchar" style="text;align=left;verticalAlign=top;spacingLeft=4;spacingRight=4;overflow=hidden;rotatable=0;points=[[0,0.5],[1,0.5]];portConstraint=eastwest;rounded=0;shadow=0;html=0;" vertex="1" parent="AR9MG2BKAFISzcUvacr6-31">
          <mxGeometry y="76" width="200" height="26" as="geometry" />
        </mxCell>
        <mxCell id="AR9MG2BKAFISzcUvacr6-34" value="TipoMaterial: varchar" style="text;align=left;verticalAlign=top;spacingLeft=4;spacingRight=4;overflow=hidden;rotatable=0;points=[[0,0.5],[1,0.5]];portConstraint=eastwest;rounded=0;shadow=0;html=0;" vertex="1" parent="AR9MG2BKAFISzcUvacr6-31">
          <mxGeometry y="102" width="200" height="26" as="geometry" />
        </mxCell>
        <mxCell id="AR9MG2BKAFISzcUvacr6-35" value="Durabilidad: varchar" style="text;align=left;verticalAlign=top;spacingLeft=4;spacingRight=4;overflow=hidden;rotatable=0;points=[[0,0.5],[1,0.5]];portConstraint=eastwest;rounded=0;shadow=0;html=0;" vertex="1" parent="AR9MG2BKAFISzcUvacr6-31">
          <mxGeometry y="128" width="200" height="26" as="geometry" />
        </mxCell>
        <mxCell id="AR9MG2BKAFISzcUvacr6-36" value="Aislamiento: varchar" style="text;align=left;verticalAlign=top;spacingLeft=4;spacingRight=4;overflow=hidden;rotatable=0;points=[[0,0.5],[1,0.5]];portConstraint=eastwest;rounded=0;shadow=0;html=0;" vertex="1" parent="AR9MG2BKAFISzcUvacr6-31">
          <mxGeometry y="154" width="200" height="26" as="geometry" />
        </mxCell>
        <mxCell id="AR9MG2BKAFISzcUvacr6-175" value="*PK IDMaterial: varchar" style="text;align=left;verticalAlign=top;spacingLeft=4;spacingRight=4;overflow=hidden;rotatable=0;points=[[0,0.5],[1,0.5]];portConstraint=eastwest;rounded=0;shadow=0;html=0;" vertex="1" parent="AR9MG2BKAFISzcUvacr6-31">
          <mxGeometry y="180" width="200" height="26" as="geometry" />
        </mxCell>
        <mxCell id="AR9MG2BKAFISzcUvacr6-37" value="" style="line;html=1;strokeWidth=1;align=left;verticalAlign=middle;spacingTop=-1;spacingLeft=3;spacingRight=3;rotatable=0;labelPosition=right;points=[];portConstraint=eastwest;" vertex="1" parent="AR9MG2BKAFISzcUvacr6-31">
          <mxGeometry y="206" width="200" height="8" as="geometry" />
        </mxCell>
        <mxCell id="AR9MG2BKAFISzcUvacr6-174" value="&lt;PK&gt; &#xa;+ PK_Material(varchar)" style="text;align=left;verticalAlign=top;spacingLeft=4;spacingRight=4;overflow=hidden;rotatable=0;points=[[0,0.5],[1,0.5]];portConstraint=eastwest;" vertex="1" parent="AR9MG2BKAFISzcUvacr6-31">
          <mxGeometry y="214" width="200" height="38" as="geometry" />
        </mxCell>
        <mxCell id="AR9MG2BKAFISzcUvacr6-41" value="Depósito" style="swimlane;fontStyle=0;align=center;verticalAlign=top;childLayout=stackLayout;horizontal=1;startSize=26;horizontalStack=0;resizeParent=1;resizeLast=0;collapsible=1;marginBottom=0;rounded=0;shadow=0;strokeWidth=1;" vertex="1" parent="WIyWlLk6GJQsqaUBKTNV-1">
          <mxGeometry x="1710" y="836" width="200" height="160" as="geometry">
            <mxRectangle x="550" y="140" width="160" height="26" as="alternateBounds" />
          </mxGeometry>
        </mxCell>
        <mxCell id="AR9MG2BKAFISzcUvacr6-166" value="&lt;column&gt;" style="text;align=left;verticalAlign=top;spacingLeft=4;spacingRight=4;overflow=hidden;rotatable=0;points=[[0,0.5],[1,0.5]];portConstraint=eastwest;" vertex="1" parent="AR9MG2BKAFISzcUvacr6-41">
          <mxGeometry y="26" width="200" height="26" as="geometry" />
        </mxCell>
        <mxCell id="AR9MG2BKAFISzcUvacr6-42" value="Ubicación: varchar" style="text;align=left;verticalAlign=top;spacingLeft=4;spacingRight=4;overflow=hidden;rotatable=0;points=[[0,0.5],[1,0.5]];portConstraint=eastwest;rounded=0;shadow=0;html=0;" vertex="1" parent="AR9MG2BKAFISzcUvacr6-41">
          <mxGeometry y="52" width="200" height="26" as="geometry" />
        </mxCell>
        <mxCell id="AR9MG2BKAFISzcUvacr6-167" value="*PK IDDeposito: (varchar)" style="text;align=left;verticalAlign=top;spacingLeft=4;spacingRight=4;overflow=hidden;rotatable=0;points=[[0,0.5],[1,0.5]];portConstraint=eastwest;rounded=0;shadow=0;html=0;" vertex="1" parent="AR9MG2BKAFISzcUvacr6-41">
          <mxGeometry y="78" width="200" height="26" as="geometry" />
        </mxCell>
        <mxCell id="AR9MG2BKAFISzcUvacr6-43" value="" style="line;html=1;strokeWidth=1;align=left;verticalAlign=middle;spacingTop=-1;spacingLeft=3;spacingRight=3;rotatable=0;labelPosition=right;points=[];portConstraint=eastwest;" vertex="1" parent="AR9MG2BKAFISzcUvacr6-41">
          <mxGeometry y="104" width="200" height="8" as="geometry" />
        </mxCell>
        <mxCell id="AR9MG2BKAFISzcUvacr6-168" value="&lt;PK&gt; &#xa;+ PK_Deposito(varchar)" style="text;align=left;verticalAlign=top;spacingLeft=4;spacingRight=4;overflow=hidden;rotatable=0;points=[[0,0.5],[1,0.5]];portConstraint=eastwest;" vertex="1" parent="AR9MG2BKAFISzcUvacr6-41">
          <mxGeometry y="112" width="200" height="48" as="geometry" />
        </mxCell>
        <mxCell id="AR9MG2BKAFISzcUvacr6-48" value="Entrega" style="swimlane;fontStyle=0;align=center;verticalAlign=top;childLayout=stackLayout;horizontal=1;startSize=26;horizontalStack=0;resizeParent=1;resizeLast=0;collapsible=1;marginBottom=0;rounded=0;shadow=0;strokeWidth=1;" vertex="1" parent="WIyWlLk6GJQsqaUBKTNV-1">
          <mxGeometry x="1280" y="1180" width="200" height="188" as="geometry">
            <mxRectangle x="550" y="140" width="160" height="26" as="alternateBounds" />
          </mxGeometry>
        </mxCell>
        <mxCell id="AR9MG2BKAFISzcUvacr6-163" value="&lt;column&gt;" style="text;align=left;verticalAlign=top;spacingLeft=4;spacingRight=4;overflow=hidden;rotatable=0;points=[[0,0.5],[1,0.5]];portConstraint=eastwest;" vertex="1" parent="AR9MG2BKAFISzcUvacr6-48">
          <mxGeometry y="26" width="200" height="26" as="geometry" />
        </mxCell>
        <mxCell id="AR9MG2BKAFISzcUvacr6-49" value="FechaEntrega: varchar" style="text;align=left;verticalAlign=top;spacingLeft=4;spacingRight=4;overflow=hidden;rotatable=0;points=[[0,0.5],[1,0.5]];portConstraint=eastwest;rounded=0;shadow=0;html=0;" vertex="1" parent="AR9MG2BKAFISzcUvacr6-48">
          <mxGeometry y="52" width="200" height="26" as="geometry" />
        </mxCell>
        <mxCell id="AR9MG2BKAFISzcUvacr6-50" value="Estado: varchar" style="text;align=left;verticalAlign=top;spacingLeft=4;spacingRight=4;overflow=hidden;rotatable=0;points=[[0,0.5],[1,0.5]];portConstraint=eastwest;rounded=0;shadow=0;html=0;" vertex="1" parent="AR9MG2BKAFISzcUvacr6-48">
          <mxGeometry y="78" width="200" height="26" as="geometry" />
        </mxCell>
        <mxCell id="AR9MG2BKAFISzcUvacr6-164" value="*PK: IDEntrega: varchar" style="text;align=left;verticalAlign=top;spacingLeft=4;spacingRight=4;overflow=hidden;rotatable=0;points=[[0,0.5],[1,0.5]];portConstraint=eastwest;" vertex="1" parent="AR9MG2BKAFISzcUvacr6-48">
          <mxGeometry y="104" width="200" height="26" as="geometry" />
        </mxCell>
        <mxCell id="AR9MG2BKAFISzcUvacr6-51" value="" style="line;html=1;strokeWidth=1;align=left;verticalAlign=middle;spacingTop=-1;spacingLeft=3;spacingRight=3;rotatable=0;labelPosition=right;points=[];portConstraint=eastwest;" vertex="1" parent="AR9MG2BKAFISzcUvacr6-48">
          <mxGeometry y="130" width="200" height="8" as="geometry" />
        </mxCell>
        <mxCell id="AR9MG2BKAFISzcUvacr6-165" value="&lt;PK&gt; &#xa;+ PK_Entrega(varchar)" style="text;align=left;verticalAlign=top;spacingLeft=4;spacingRight=4;overflow=hidden;rotatable=0;points=[[0,0.5],[1,0.5]];portConstraint=eastwest;" vertex="1" parent="AR9MG2BKAFISzcUvacr6-48">
          <mxGeometry y="138" width="200" height="38" as="geometry" />
        </mxCell>
        <mxCell id="AR9MG2BKAFISzcUvacr6-56" value="Listo para Distribuir" style="swimlane;fontStyle=0;align=center;verticalAlign=top;childLayout=stackLayout;horizontal=1;startSize=26;horizontalStack=0;resizeParent=1;resizeLast=0;collapsible=1;marginBottom=0;rounded=0;shadow=0;strokeWidth=1;" vertex="1" parent="WIyWlLk6GJQsqaUBKTNV-1">
          <mxGeometry x="401" y="1110" width="176" height="160" as="geometry">
            <mxRectangle x="230" y="140" width="160" height="26" as="alternateBounds" />
          </mxGeometry>
        </mxCell>
        <mxCell id="AR9MG2BKAFISzcUvacr6-139" value="&lt;column&gt;" style="text;align=left;verticalAlign=top;spacingLeft=4;spacingRight=4;overflow=hidden;rotatable=0;points=[[0,0.5],[1,0.5]];portConstraint=eastwest;" vertex="1" parent="AR9MG2BKAFISzcUvacr6-56">
          <mxGeometry y="26" width="176" height="26" as="geometry" />
        </mxCell>
        <mxCell id="AR9MG2BKAFISzcUvacr6-58" value="*Pk/Fk: IDDistribucion(varchar)" style="text;align=left;verticalAlign=top;spacingLeft=4;spacingRight=4;overflow=hidden;rotatable=0;points=[[0,0.5],[1,0.5]];portConstraint=eastwest;" vertex="1" parent="AR9MG2BKAFISzcUvacr6-56">
          <mxGeometry y="52" width="176" height="26" as="geometry" />
        </mxCell>
        <mxCell id="AR9MG2BKAFISzcUvacr6-57" value="" style="line;html=1;strokeWidth=1;align=left;verticalAlign=middle;spacingTop=-1;spacingLeft=3;spacingRight=3;rotatable=0;labelPosition=right;points=[];portConstraint=eastwest;" vertex="1" parent="AR9MG2BKAFISzcUvacr6-56">
          <mxGeometry y="78" width="176" height="8" as="geometry" />
        </mxCell>
        <mxCell id="AR9MG2BKAFISzcUvacr6-135" value="&lt;PK&gt;&#xa;+ PK_Distribucion(varchar)&#xa;&lt;FK&gt;&#xa;+ FK_Distribucion_Estado(varchar)" style="text;align=left;verticalAlign=top;spacingLeft=4;spacingRight=4;overflow=hidden;rotatable=0;points=[[0,0.5],[1,0.5]];portConstraint=eastwest;" vertex="1" parent="AR9MG2BKAFISzcUvacr6-56">
          <mxGeometry y="86" width="176" height="74" as="geometry" />
        </mxCell>
        <mxCell id="AR9MG2BKAFISzcUvacr6-66" value="PedidoMateriaPrima" style="swimlane;fontStyle=0;align=center;verticalAlign=top;childLayout=stackLayout;horizontal=1;startSize=26;horizontalStack=0;resizeParent=1;resizeLast=0;collapsible=1;marginBottom=0;rounded=0;shadow=0;strokeWidth=1;" vertex="1" parent="WIyWlLk6GJQsqaUBKTNV-1">
          <mxGeometry x="679" y="-40" width="230" height="148" as="geometry">
            <mxRectangle x="550" y="140" width="160" height="26" as="alternateBounds" />
          </mxGeometry>
        </mxCell>
        <mxCell id="AR9MG2BKAFISzcUvacr6-218" value="&lt;column&gt;" style="text;align=left;verticalAlign=top;spacingLeft=4;spacingRight=4;overflow=hidden;rotatable=0;points=[[0,0.5],[1,0.5]];portConstraint=eastwest;" vertex="1" parent="AR9MG2BKAFISzcUvacr6-66">
          <mxGeometry y="26" width="230" height="24" as="geometry" />
        </mxCell>
        <mxCell id="AR9MG2BKAFISzcUvacr6-67" value="Fecha: varchar" style="text;align=left;verticalAlign=top;spacingLeft=4;spacingRight=4;overflow=hidden;rotatable=0;points=[[0,0.5],[1,0.5]];portConstraint=eastwest;rounded=0;shadow=0;html=0;" vertex="1" parent="AR9MG2BKAFISzcUvacr6-66">
          <mxGeometry y="50" width="230" height="26" as="geometry" />
        </mxCell>
        <mxCell id="AR9MG2BKAFISzcUvacr6-220" value="*PK IDPedidoMateriaPrima: varchar" style="text;align=left;verticalAlign=top;spacingLeft=4;spacingRight=4;overflow=hidden;rotatable=0;points=[[0,0.5],[1,0.5]];portConstraint=eastwest;rounded=0;shadow=0;html=0;" vertex="1" parent="AR9MG2BKAFISzcUvacr6-66">
          <mxGeometry y="76" width="230" height="26" as="geometry" />
        </mxCell>
        <mxCell id="AR9MG2BKAFISzcUvacr6-68" value="" style="line;html=1;strokeWidth=1;align=left;verticalAlign=middle;spacingTop=-1;spacingLeft=3;spacingRight=3;rotatable=0;labelPosition=right;points=[];portConstraint=eastwest;" vertex="1" parent="AR9MG2BKAFISzcUvacr6-66">
          <mxGeometry y="102" width="230" height="8" as="geometry" />
        </mxCell>
        <mxCell id="AR9MG2BKAFISzcUvacr6-219" value="&lt;PK&gt; &#xa;+ PK_PedidoMateriaPrima(varchar)" style="text;align=left;verticalAlign=top;spacingLeft=4;spacingRight=4;overflow=hidden;rotatable=0;points=[[0,0.5],[1,0.5]];portConstraint=eastwest;" vertex="1" parent="AR9MG2BKAFISzcUvacr6-66">
          <mxGeometry y="110" width="230" height="38" as="geometry" />
        </mxCell>
        <mxCell id="AR9MG2BKAFISzcUvacr6-84" value="OrdenProducción" style="swimlane;fontStyle=0;align=center;verticalAlign=top;childLayout=stackLayout;horizontal=1;startSize=26;horizontalStack=0;resizeParent=1;resizeLast=0;collapsible=1;marginBottom=0;rounded=0;shadow=0;strokeWidth=1;" vertex="1" parent="WIyWlLk6GJQsqaUBKTNV-1">
          <mxGeometry x="2080" y="-490" width="350" height="328" as="geometry">
            <mxRectangle x="550" y="140" width="160" height="26" as="alternateBounds" />
          </mxGeometry>
        </mxCell>
        <mxCell id="AR9MG2BKAFISzcUvacr6-176" value="&lt;column&gt;" style="text;align=left;verticalAlign=top;spacingLeft=4;spacingRight=4;overflow=hidden;rotatable=0;points=[[0,0.5],[1,0.5]];portConstraint=eastwest;" vertex="1" parent="AR9MG2BKAFISzcUvacr6-84">
          <mxGeometry y="26" width="350" height="24" as="geometry" />
        </mxCell>
        <mxCell id="AR9MG2BKAFISzcUvacr6-85" value="Fecha: varchar" style="text;align=left;verticalAlign=top;spacingLeft=4;spacingRight=4;overflow=hidden;rotatable=0;points=[[0,0.5],[1,0.5]];portConstraint=eastwest;rounded=0;shadow=0;html=0;" vertex="1" parent="AR9MG2BKAFISzcUvacr6-84">
          <mxGeometry y="50" width="350" height="26" as="geometry" />
        </mxCell>
        <mxCell id="AR9MG2BKAFISzcUvacr6-86" value="Cantidad: varchar" style="text;align=left;verticalAlign=top;spacingLeft=4;spacingRight=4;overflow=hidden;rotatable=0;points=[[0,0.5],[1,0.5]];portConstraint=eastwest;rounded=0;shadow=0;html=0;" vertex="1" parent="AR9MG2BKAFISzcUvacr6-84">
          <mxGeometry y="76" width="350" height="26" as="geometry" />
        </mxCell>
        <mxCell id="AR9MG2BKAFISzcUvacr6-87" value="Pasos: varchar" style="text;align=left;verticalAlign=top;spacingLeft=4;spacingRight=4;overflow=hidden;rotatable=0;points=[[0,0.5],[1,0.5]];portConstraint=eastwest;rounded=0;shadow=0;html=0;" vertex="1" parent="AR9MG2BKAFISzcUvacr6-84">
          <mxGeometry y="102" width="350" height="26" as="geometry" />
        </mxCell>
        <mxCell id="AR9MG2BKAFISzcUvacr6-88" value="Numero: varchar" style="text;align=left;verticalAlign=top;spacingLeft=4;spacingRight=4;overflow=hidden;rotatable=0;points=[[0,0.5],[1,0.5]];portConstraint=eastwest;rounded=0;shadow=0;html=0;" vertex="1" parent="AR9MG2BKAFISzcUvacr6-84">
          <mxGeometry y="128" width="350" height="26" as="geometry" />
        </mxCell>
        <mxCell id="AR9MG2BKAFISzcUvacr6-177" value="*PK IDOrdenProduccion: varchar" style="text;align=left;verticalAlign=top;spacingLeft=4;spacingRight=4;overflow=hidden;rotatable=0;points=[[0,0.5],[1,0.5]];portConstraint=eastwest;rounded=0;shadow=0;html=0;" vertex="1" parent="AR9MG2BKAFISzcUvacr6-84">
          <mxGeometry y="154" width="350" height="26" as="geometry" />
        </mxCell>
        <mxCell id="AR9MG2BKAFISzcUvacr6-322" value="*FK IDEmpleado: varchar&#xa;" style="text;align=left;verticalAlign=top;spacingLeft=4;spacingRight=4;overflow=hidden;rotatable=0;points=[[0,0.5],[1,0.5]];portConstraint=eastwest;rounded=0;shadow=0;html=0;" vertex="1" parent="AR9MG2BKAFISzcUvacr6-84">
          <mxGeometry y="180" width="350" height="26" as="geometry" />
        </mxCell>
        <mxCell id="AR9MG2BKAFISzcUvacr6-323" value="*FK IDPedidoMateriaPrima: int" style="text;align=left;verticalAlign=top;spacingLeft=4;spacingRight=4;overflow=hidden;rotatable=0;points=[[0,0.5],[1,0.5]];portConstraint=eastwest;rounded=0;shadow=0;html=0;" vertex="1" parent="AR9MG2BKAFISzcUvacr6-84">
          <mxGeometry y="206" width="350" height="26" as="geometry" />
        </mxCell>
        <mxCell id="AR9MG2BKAFISzcUvacr6-89" value="" style="line;html=1;strokeWidth=1;align=left;verticalAlign=middle;spacingTop=-1;spacingLeft=3;spacingRight=3;rotatable=0;labelPosition=right;points=[];portConstraint=eastwest;" vertex="1" parent="AR9MG2BKAFISzcUvacr6-84">
          <mxGeometry y="232" width="350" height="8" as="geometry" />
        </mxCell>
        <mxCell id="AR9MG2BKAFISzcUvacr6-327" value="&lt;PK&gt; &#xa;+ PK_OrdenProduccion(varchar)&#xa;&lt;FK&gt;&#xa;+ FK_OrdenProduccion_PedidoMateriaPrima(int)&#xa;+ FK_OrdenProduccion_Empleado(varchar)" style="text;align=left;verticalAlign=top;spacingLeft=4;spacingRight=4;overflow=hidden;rotatable=0;points=[[0,0.5],[1,0.5]];portConstraint=eastwest;" vertex="1" parent="AR9MG2BKAFISzcUvacr6-84">
          <mxGeometry y="240" width="350" height="88" as="geometry" />
        </mxCell>
        <mxCell id="AR9MG2BKAFISzcUvacr6-94" value="Empleado" style="swimlane;fontStyle=0;align=center;verticalAlign=top;childLayout=stackLayout;horizontal=1;startSize=26;horizontalStack=0;resizeParent=1;resizeLast=0;collapsible=1;marginBottom=0;rounded=0;shadow=0;strokeWidth=1;" vertex="1" parent="WIyWlLk6GJQsqaUBKTNV-1">
          <mxGeometry x="2250" y="330" width="200" height="260" as="geometry">
            <mxRectangle x="550" y="140" width="160" height="26" as="alternateBounds" />
          </mxGeometry>
        </mxCell>
        <mxCell id="AR9MG2BKAFISzcUvacr6-170" value="&lt;column&gt;" style="text;align=left;verticalAlign=top;spacingLeft=4;spacingRight=4;overflow=hidden;rotatable=0;points=[[0,0.5],[1,0.5]];portConstraint=eastwest;" vertex="1" parent="AR9MG2BKAFISzcUvacr6-94">
          <mxGeometry y="26" width="200" height="26" as="geometry" />
        </mxCell>
        <mxCell id="AR9MG2BKAFISzcUvacr6-95" value="Nombre: varchar" style="text;align=left;verticalAlign=top;spacingLeft=4;spacingRight=4;overflow=hidden;rotatable=0;points=[[0,0.5],[1,0.5]];portConstraint=eastwest;" vertex="1" parent="AR9MG2BKAFISzcUvacr6-94">
          <mxGeometry y="52" width="200" height="26" as="geometry" />
        </mxCell>
        <mxCell id="AR9MG2BKAFISzcUvacr6-96" value="Apellido: varchar" style="text;align=left;verticalAlign=top;spacingLeft=4;spacingRight=4;overflow=hidden;rotatable=0;points=[[0,0.5],[1,0.5]];portConstraint=eastwest;rounded=0;shadow=0;html=0;" vertex="1" parent="AR9MG2BKAFISzcUvacr6-94">
          <mxGeometry y="78" width="200" height="26" as="geometry" />
        </mxCell>
        <mxCell id="AR9MG2BKAFISzcUvacr6-97" value="Área: varchar" style="text;align=left;verticalAlign=top;spacingLeft=4;spacingRight=4;overflow=hidden;rotatable=0;points=[[0,0.5],[1,0.5]];portConstraint=eastwest;rounded=0;shadow=0;html=0;" vertex="1" parent="AR9MG2BKAFISzcUvacr6-94">
          <mxGeometry y="104" width="200" height="26" as="geometry" />
        </mxCell>
        <mxCell id="AR9MG2BKAFISzcUvacr6-98" value="Usuario: varchar" style="text;align=left;verticalAlign=top;spacingLeft=4;spacingRight=4;overflow=hidden;rotatable=0;points=[[0,0.5],[1,0.5]];portConstraint=eastwest;rounded=0;shadow=0;html=0;" vertex="1" parent="AR9MG2BKAFISzcUvacr6-94">
          <mxGeometry y="130" width="200" height="26" as="geometry" />
        </mxCell>
        <mxCell id="AR9MG2BKAFISzcUvacr6-99" value="Contraseña: varchar" style="text;align=left;verticalAlign=top;spacingLeft=4;spacingRight=4;overflow=hidden;rotatable=0;points=[[0,0.5],[1,0.5]];portConstraint=eastwest;rounded=0;shadow=0;html=0;" vertex="1" parent="AR9MG2BKAFISzcUvacr6-94">
          <mxGeometry y="156" width="200" height="26" as="geometry" />
        </mxCell>
        <mxCell id="AR9MG2BKAFISzcUvacr6-171" value="*PK IDEmpleado: varchar" style="text;align=left;verticalAlign=top;spacingLeft=4;spacingRight=4;overflow=hidden;rotatable=0;points=[[0,0.5],[1,0.5]];portConstraint=eastwest;rounded=0;shadow=0;html=0;" vertex="1" parent="AR9MG2BKAFISzcUvacr6-94">
          <mxGeometry y="182" width="200" height="26" as="geometry" />
        </mxCell>
        <mxCell id="AR9MG2BKAFISzcUvacr6-100" value="" style="line;html=1;strokeWidth=1;align=left;verticalAlign=middle;spacingTop=-1;spacingLeft=3;spacingRight=3;rotatable=0;labelPosition=right;points=[];portConstraint=eastwest;" vertex="1" parent="AR9MG2BKAFISzcUvacr6-94">
          <mxGeometry y="208" width="200" height="8" as="geometry" />
        </mxCell>
        <mxCell id="AR9MG2BKAFISzcUvacr6-172" value="&lt;PK&gt; &#xa;+ PK_Empleado(varchar)" style="text;align=left;verticalAlign=top;spacingLeft=4;spacingRight=4;overflow=hidden;rotatable=0;points=[[0,0.5],[1,0.5]];portConstraint=eastwest;" vertex="1" parent="AR9MG2BKAFISzcUvacr6-94">
          <mxGeometry y="216" width="200" height="38" as="geometry" />
        </mxCell>
        <mxCell id="AR9MG2BKAFISzcUvacr6-111" value="DetalleOrden" style="swimlane;fontStyle=0;align=center;verticalAlign=top;childLayout=stackLayout;horizontal=1;startSize=26;horizontalStack=0;resizeParent=1;resizeLast=0;collapsible=1;marginBottom=0;rounded=0;shadow=0;strokeWidth=1;" vertex="1" parent="WIyWlLk6GJQsqaUBKTNV-1">
          <mxGeometry x="810" y="300" width="190" height="268" as="geometry">
            <mxRectangle x="230" y="140" width="160" height="26" as="alternateBounds" />
          </mxGeometry>
        </mxCell>
        <mxCell id="AR9MG2BKAFISzcUvacr6-221" value="&lt;column&gt;" style="text;align=left;verticalAlign=top;spacingLeft=4;spacingRight=4;overflow=hidden;rotatable=0;points=[[0,0.5],[1,0.5]];portConstraint=eastwest;" vertex="1" parent="AR9MG2BKAFISzcUvacr6-111">
          <mxGeometry y="26" width="190" height="24" as="geometry" />
        </mxCell>
        <mxCell id="AR9MG2BKAFISzcUvacr6-112" value="Cantidad: varchar" style="text;align=left;verticalAlign=top;spacingLeft=4;spacingRight=4;overflow=hidden;rotatable=0;points=[[0,0.5],[1,0.5]];portConstraint=eastwest;" vertex="1" parent="AR9MG2BKAFISzcUvacr6-111">
          <mxGeometry y="50" width="190" height="26" as="geometry" />
        </mxCell>
        <mxCell id="AR9MG2BKAFISzcUvacr6-113" value="Precio: varchar" style="text;align=left;verticalAlign=top;spacingLeft=4;spacingRight=4;overflow=hidden;rotatable=0;points=[[0,0.5],[1,0.5]];portConstraint=eastwest;" vertex="1" parent="AR9MG2BKAFISzcUvacr6-111">
          <mxGeometry y="76" width="190" height="26" as="geometry" />
        </mxCell>
        <mxCell id="AR9MG2BKAFISzcUvacr6-222" value="*PK IDDetalleOrden: varchar" style="text;align=left;verticalAlign=top;spacingLeft=4;spacingRight=4;overflow=hidden;rotatable=0;points=[[0,0.5],[1,0.5]];portConstraint=eastwest;" vertex="1" parent="AR9MG2BKAFISzcUvacr6-111">
          <mxGeometry y="102" width="190" height="26" as="geometry" />
        </mxCell>
        <mxCell id="AR9MG2BKAFISzcUvacr6-233" value="FK IDOrden: int" style="text;align=left;verticalAlign=top;spacingLeft=4;spacingRight=4;overflow=hidden;rotatable=0;points=[[0,0.5],[1,0.5]];portConstraint=eastwest;" vertex="1" parent="AR9MG2BKAFISzcUvacr6-111">
          <mxGeometry y="128" width="190" height="26" as="geometry" />
        </mxCell>
        <mxCell id="AR9MG2BKAFISzcUvacr6-232" value="FK IDMaterial: int" style="text;align=left;verticalAlign=top;spacingLeft=4;spacingRight=4;overflow=hidden;rotatable=0;points=[[0,0.5],[1,0.5]];portConstraint=eastwest;" vertex="1" parent="AR9MG2BKAFISzcUvacr6-111">
          <mxGeometry y="154" width="190" height="26" as="geometry" />
        </mxCell>
        <mxCell id="AR9MG2BKAFISzcUvacr6-229" value="" style="line;html=1;strokeWidth=1;align=left;verticalAlign=middle;spacingTop=-1;spacingLeft=3;spacingRight=3;rotatable=0;labelPosition=right;points=[];portConstraint=eastwest;" vertex="1" parent="AR9MG2BKAFISzcUvacr6-111">
          <mxGeometry y="180" width="190" height="8" as="geometry" />
        </mxCell>
        <mxCell id="AR9MG2BKAFISzcUvacr6-228" value="&lt;PK&gt;&#xa;+ PK_DetalleOrden(varchar)&#xa;&lt;FK&gt;&#xa;+ FK_DetalleOrden_Orden(int)&#xa;+ FK_DetalleOrden_Material(int)&#xa;" style="text;align=left;verticalAlign=top;spacingLeft=4;spacingRight=4;overflow=hidden;rotatable=0;points=[[0,0.5],[1,0.5]];portConstraint=eastwest;" vertex="1" parent="AR9MG2BKAFISzcUvacr6-111">
          <mxGeometry y="188" width="190" height="80" as="geometry" />
        </mxCell>
        <mxCell id="AR9MG2BKAFISzcUvacr6-114" value="DetalleEntrega" style="swimlane;fontStyle=0;align=center;verticalAlign=top;childLayout=stackLayout;horizontal=1;startSize=26;horizontalStack=0;resizeParent=1;resizeLast=0;collapsible=1;marginBottom=0;rounded=0;shadow=0;strokeWidth=1;" vertex="1" parent="WIyWlLk6GJQsqaUBKTNV-1">
          <mxGeometry x="1270" y="748" width="210" height="270" as="geometry">
            <mxRectangle x="230" y="140" width="160" height="26" as="alternateBounds" />
          </mxGeometry>
        </mxCell>
        <mxCell id="AR9MG2BKAFISzcUvacr6-260" value="&lt;column&gt;" style="text;align=left;verticalAlign=top;spacingLeft=4;spacingRight=4;overflow=hidden;rotatable=0;points=[[0,0.5],[1,0.5]];portConstraint=eastwest;" vertex="1" parent="AR9MG2BKAFISzcUvacr6-114">
          <mxGeometry y="26" width="210" height="26" as="geometry" />
        </mxCell>
        <mxCell id="AR9MG2BKAFISzcUvacr6-115" value="Cantidad: varchar" style="text;align=left;verticalAlign=top;spacingLeft=4;spacingRight=4;overflow=hidden;rotatable=0;points=[[0,0.5],[1,0.5]];portConstraint=eastwest;" vertex="1" parent="AR9MG2BKAFISzcUvacr6-114">
          <mxGeometry y="52" width="210" height="26" as="geometry" />
        </mxCell>
        <mxCell id="AR9MG2BKAFISzcUvacr6-116" value="Lote: varchar" style="text;align=left;verticalAlign=top;spacingLeft=4;spacingRight=4;overflow=hidden;rotatable=0;points=[[0,0.5],[1,0.5]];portConstraint=eastwest;" vertex="1" parent="AR9MG2BKAFISzcUvacr6-114">
          <mxGeometry y="78" width="210" height="26" as="geometry" />
        </mxCell>
        <mxCell id="AR9MG2BKAFISzcUvacr6-261" value="*PK IDDetalleEntrega: varchar" style="text;align=left;verticalAlign=top;spacingLeft=4;spacingRight=4;overflow=hidden;rotatable=0;points=[[0,0.5],[1,0.5]];portConstraint=eastwest;" vertex="1" parent="AR9MG2BKAFISzcUvacr6-114">
          <mxGeometry y="104" width="210" height="26" as="geometry" />
        </mxCell>
        <mxCell id="AR9MG2BKAFISzcUvacr6-262" value="FK IDMaterial: int" style="text;align=left;verticalAlign=top;spacingLeft=4;spacingRight=4;overflow=hidden;rotatable=0;points=[[0,0.5],[1,0.5]];portConstraint=eastwest;" vertex="1" parent="AR9MG2BKAFISzcUvacr6-114">
          <mxGeometry y="130" width="210" height="26" as="geometry" />
        </mxCell>
        <mxCell id="AR9MG2BKAFISzcUvacr6-263" value="FK IDEntrega: int" style="text;align=left;verticalAlign=top;spacingLeft=4;spacingRight=4;overflow=hidden;rotatable=0;points=[[0,0.5],[1,0.5]];portConstraint=eastwest;" vertex="1" parent="AR9MG2BKAFISzcUvacr6-114">
          <mxGeometry y="156" width="210" height="26" as="geometry" />
        </mxCell>
        <mxCell id="AR9MG2BKAFISzcUvacr6-264" value="" style="line;html=1;strokeWidth=1;align=left;verticalAlign=middle;spacingTop=-1;spacingLeft=3;spacingRight=3;rotatable=0;labelPosition=right;points=[];portConstraint=eastwest;" vertex="1" parent="AR9MG2BKAFISzcUvacr6-114">
          <mxGeometry y="182" width="210" height="8" as="geometry" />
        </mxCell>
        <mxCell id="AR9MG2BKAFISzcUvacr6-265" value="&lt;PK&gt;&#xa;+ PK_DetalleEntrega(varchar)&#xa;&lt;FK&gt;&#xa;+ FK_DetalleEntrega_ Material(int)&#xa;+ FK_DetalleEntrega_Entrega(int)&#xa;" style="text;align=left;verticalAlign=top;spacingLeft=4;spacingRight=4;overflow=hidden;rotatable=0;points=[[0,0.5],[1,0.5]];portConstraint=eastwest;" vertex="1" parent="AR9MG2BKAFISzcUvacr6-114">
          <mxGeometry y="190" width="210" height="80" as="geometry" />
        </mxCell>
        <mxCell id="AR9MG2BKAFISzcUvacr6-119" value="Stock" style="swimlane;fontStyle=0;align=center;verticalAlign=top;childLayout=stackLayout;horizontal=1;startSize=26;horizontalStack=0;resizeParent=1;resizeLast=0;collapsible=1;marginBottom=0;rounded=0;shadow=0;strokeWidth=1;" vertex="1" parent="WIyWlLk6GJQsqaUBKTNV-1">
          <mxGeometry x="1710" y="318" width="160" height="268" as="geometry">
            <mxRectangle x="230" y="140" width="160" height="26" as="alternateBounds" />
          </mxGeometry>
        </mxCell>
        <mxCell id="AR9MG2BKAFISzcUvacr6-281" value="&lt;column&gt;" style="text;align=left;verticalAlign=top;spacingLeft=4;spacingRight=4;overflow=hidden;rotatable=0;points=[[0,0.5],[1,0.5]];portConstraint=eastwest;" vertex="1" parent="AR9MG2BKAFISzcUvacr6-119">
          <mxGeometry y="26" width="160" height="24" as="geometry" />
        </mxCell>
        <mxCell id="AR9MG2BKAFISzcUvacr6-120" value="Cantidad: varchar" style="text;align=left;verticalAlign=top;spacingLeft=4;spacingRight=4;overflow=hidden;rotatable=0;points=[[0,0.5],[1,0.5]];portConstraint=eastwest;" vertex="1" parent="AR9MG2BKAFISzcUvacr6-119">
          <mxGeometry y="50" width="160" height="26" as="geometry" />
        </mxCell>
        <mxCell id="AR9MG2BKAFISzcUvacr6-121" value="Lote: varchar" style="text;align=left;verticalAlign=top;spacingLeft=4;spacingRight=4;overflow=hidden;rotatable=0;points=[[0,0.5],[1,0.5]];portConstraint=eastwest;" vertex="1" parent="AR9MG2BKAFISzcUvacr6-119">
          <mxGeometry y="76" width="160" height="26" as="geometry" />
        </mxCell>
        <mxCell id="AR9MG2BKAFISzcUvacr6-282" value="*PK IDStock: varchar" style="text;align=left;verticalAlign=top;spacingLeft=4;spacingRight=4;overflow=hidden;rotatable=0;points=[[0,0.5],[1,0.5]];portConstraint=eastwest;" vertex="1" parent="AR9MG2BKAFISzcUvacr6-119">
          <mxGeometry y="102" width="160" height="26" as="geometry" />
        </mxCell>
        <mxCell id="AR9MG2BKAFISzcUvacr6-283" value="FK IDDeposito: int" style="text;align=left;verticalAlign=top;spacingLeft=4;spacingRight=4;overflow=hidden;rotatable=0;points=[[0,0.5],[1,0.5]];portConstraint=eastwest;" vertex="1" parent="AR9MG2BKAFISzcUvacr6-119">
          <mxGeometry y="128" width="160" height="26" as="geometry" />
        </mxCell>
        <mxCell id="AR9MG2BKAFISzcUvacr6-284" value="FK IDMaterial: int" style="text;align=left;verticalAlign=top;spacingLeft=4;spacingRight=4;overflow=hidden;rotatable=0;points=[[0,0.5],[1,0.5]];portConstraint=eastwest;" vertex="1" parent="AR9MG2BKAFISzcUvacr6-119">
          <mxGeometry y="154" width="160" height="26" as="geometry" />
        </mxCell>
        <mxCell id="AR9MG2BKAFISzcUvacr6-285" value="" style="line;html=1;strokeWidth=1;align=left;verticalAlign=middle;spacingTop=-1;spacingLeft=3;spacingRight=3;rotatable=0;labelPosition=right;points=[];portConstraint=eastwest;" vertex="1" parent="AR9MG2BKAFISzcUvacr6-119">
          <mxGeometry y="180" width="160" height="8" as="geometry" />
        </mxCell>
        <mxCell id="AR9MG2BKAFISzcUvacr6-286" value="&lt;PK&gt;&#xa;+ PK_Stock(varchar)&#xa;&lt;FK&gt;&#xa;+ FK_Stock_Deposito(int)&#xa;+ FK_Stock_Material(int)&#xa;" style="text;align=left;verticalAlign=top;spacingLeft=4;spacingRight=4;overflow=hidden;rotatable=0;points=[[0,0.5],[1,0.5]];portConstraint=eastwest;" vertex="1" parent="AR9MG2BKAFISzcUvacr6-119">
          <mxGeometry y="188" width="160" height="80" as="geometry" />
        </mxCell>
        <mxCell id="AR9MG2BKAFISzcUvacr6-122" value="DetallePedidoMateriaPrima" style="swimlane;fontStyle=0;align=center;verticalAlign=top;childLayout=stackLayout;horizontal=1;startSize=26;horizontalStack=0;resizeParent=1;resizeLast=0;collapsible=1;marginBottom=0;rounded=0;shadow=0;strokeWidth=1;" vertex="1" parent="WIyWlLk6GJQsqaUBKTNV-1">
          <mxGeometry x="1140" y="-60" width="340" height="250" as="geometry">
            <mxRectangle x="230" y="140" width="160" height="26" as="alternateBounds" />
          </mxGeometry>
        </mxCell>
        <mxCell id="AR9MG2BKAFISzcUvacr6-240" value="&lt;column&gt;" style="text;align=left;verticalAlign=top;spacingLeft=4;spacingRight=4;overflow=hidden;rotatable=0;points=[[0,0.5],[1,0.5]];portConstraint=eastwest;" vertex="1" parent="AR9MG2BKAFISzcUvacr6-122">
          <mxGeometry y="26" width="340" height="24" as="geometry" />
        </mxCell>
        <mxCell id="AR9MG2BKAFISzcUvacr6-123" value="Cantidad: varchar" style="text;align=left;verticalAlign=top;spacingLeft=4;spacingRight=4;overflow=hidden;rotatable=0;points=[[0,0.5],[1,0.5]];portConstraint=eastwest;" vertex="1" parent="AR9MG2BKAFISzcUvacr6-122">
          <mxGeometry y="50" width="340" height="26" as="geometry" />
        </mxCell>
        <mxCell id="AR9MG2BKAFISzcUvacr6-241" value="*PK IDDetallePedidoMateriaPrima: varchar" style="text;align=left;verticalAlign=top;spacingLeft=4;spacingRight=4;overflow=hidden;rotatable=0;points=[[0,0.5],[1,0.5]];portConstraint=eastwest;" vertex="1" parent="AR9MG2BKAFISzcUvacr6-122">
          <mxGeometry y="76" width="340" height="26" as="geometry" />
        </mxCell>
        <mxCell id="AR9MG2BKAFISzcUvacr6-242" value="FK IDMaterial: int" style="text;align=left;verticalAlign=top;spacingLeft=4;spacingRight=4;overflow=hidden;rotatable=0;points=[[0,0.5],[1,0.5]];portConstraint=eastwest;" vertex="1" parent="AR9MG2BKAFISzcUvacr6-122">
          <mxGeometry y="102" width="340" height="26" as="geometry" />
        </mxCell>
        <mxCell id="AR9MG2BKAFISzcUvacr6-243" value="FK IDPedidoMateriaPrima" style="text;align=left;verticalAlign=top;spacingLeft=4;spacingRight=4;overflow=hidden;rotatable=0;points=[[0,0.5],[1,0.5]];portConstraint=eastwest;" vertex="1" parent="AR9MG2BKAFISzcUvacr6-122">
          <mxGeometry y="128" width="340" height="26" as="geometry" />
        </mxCell>
        <mxCell id="AR9MG2BKAFISzcUvacr6-247" value="" style="line;html=1;strokeWidth=1;align=left;verticalAlign=middle;spacingTop=-1;spacingLeft=3;spacingRight=3;rotatable=0;labelPosition=right;points=[];portConstraint=eastwest;" vertex="1" parent="AR9MG2BKAFISzcUvacr6-122">
          <mxGeometry y="154" width="340" height="8" as="geometry" />
        </mxCell>
        <mxCell id="AR9MG2BKAFISzcUvacr6-248" value="&lt;PK&gt; &#xa;+ PK_DetallePedidoMateriaPrima(varchar)&#xa;&lt;FK&gt;&#xa;+ FK_DetallePedidoMateriaPrima_Material(int)&#xa;+ FK_DetallePedidoMateriaPrima_PedidoMateriaPrima(int)" style="text;align=left;verticalAlign=top;spacingLeft=4;spacingRight=4;overflow=hidden;rotatable=0;points=[[0,0.5],[1,0.5]];portConstraint=eastwest;" vertex="1" parent="AR9MG2BKAFISzcUvacr6-122">
          <mxGeometry y="162" width="340" height="88" as="geometry" />
        </mxCell>
        <mxCell id="AR9MG2BKAFISzcUvacr6-129" value="DetalleOrdenProducción" style="swimlane;fontStyle=0;align=center;verticalAlign=top;childLayout=stackLayout;horizontal=1;startSize=26;horizontalStack=0;resizeParent=1;resizeLast=0;collapsible=1;marginBottom=0;rounded=0;shadow=0;strokeWidth=1;" vertex="1" parent="WIyWlLk6GJQsqaUBKTNV-1">
          <mxGeometry x="1710" y="-30" width="330" height="250" as="geometry">
            <mxRectangle x="230" y="140" width="160" height="26" as="alternateBounds" />
          </mxGeometry>
        </mxCell>
        <mxCell id="AR9MG2BKAFISzcUvacr6-301" value="&lt;column&gt;" style="text;align=left;verticalAlign=top;spacingLeft=4;spacingRight=4;overflow=hidden;rotatable=0;points=[[0,0.5],[1,0.5]];portConstraint=eastwest;" vertex="1" parent="AR9MG2BKAFISzcUvacr6-129">
          <mxGeometry y="26" width="330" height="24" as="geometry" />
        </mxCell>
        <mxCell id="AR9MG2BKAFISzcUvacr6-130" value="Cantidad: varchar" style="text;align=left;verticalAlign=top;spacingLeft=4;spacingRight=4;overflow=hidden;rotatable=0;points=[[0,0.5],[1,0.5]];portConstraint=eastwest;" vertex="1" parent="AR9MG2BKAFISzcUvacr6-129">
          <mxGeometry y="50" width="330" height="26" as="geometry" />
        </mxCell>
        <mxCell id="AR9MG2BKAFISzcUvacr6-302" value="*PK IDDetalleOrdenProduccion: varchar" style="text;align=left;verticalAlign=top;spacingLeft=4;spacingRight=4;overflow=hidden;rotatable=0;points=[[0,0.5],[1,0.5]];portConstraint=eastwest;" vertex="1" parent="AR9MG2BKAFISzcUvacr6-129">
          <mxGeometry y="76" width="330" height="26" as="geometry" />
        </mxCell>
        <mxCell id="AR9MG2BKAFISzcUvacr6-303" value="FK IDMaterial: int&#xa;" style="text;align=left;verticalAlign=top;spacingLeft=4;spacingRight=4;overflow=hidden;rotatable=0;points=[[0,0.5],[1,0.5]];portConstraint=eastwest;" vertex="1" parent="AR9MG2BKAFISzcUvacr6-129">
          <mxGeometry y="102" width="330" height="26" as="geometry" />
        </mxCell>
        <mxCell id="AR9MG2BKAFISzcUvacr6-304" value="FK IDOrdenProduccion: int" style="text;align=left;verticalAlign=top;spacingLeft=4;spacingRight=4;overflow=hidden;rotatable=0;points=[[0,0.5],[1,0.5]];portConstraint=eastwest;" vertex="1" parent="AR9MG2BKAFISzcUvacr6-129">
          <mxGeometry y="128" width="330" height="26" as="geometry" />
        </mxCell>
        <mxCell id="AR9MG2BKAFISzcUvacr6-305" value="" style="line;html=1;strokeWidth=1;align=left;verticalAlign=middle;spacingTop=-1;spacingLeft=3;spacingRight=3;rotatable=0;labelPosition=right;points=[];portConstraint=eastwest;" vertex="1" parent="AR9MG2BKAFISzcUvacr6-129">
          <mxGeometry y="154" width="330" height="8" as="geometry" />
        </mxCell>
        <mxCell id="AR9MG2BKAFISzcUvacr6-306" value="&lt;PK&gt; &#xa;+ PK_DetalleOrdenProduccion(varchar)&#xa;&lt;FK&gt;&#xa;+ FK_DetalleOrdenProduccion_Material(int)&#xa;+ FK_DetalleOrdenProduccion_OrdenProduccion(int)" style="text;align=left;verticalAlign=top;spacingLeft=4;spacingRight=4;overflow=hidden;rotatable=0;points=[[0,0.5],[1,0.5]];portConstraint=eastwest;" vertex="1" parent="AR9MG2BKAFISzcUvacr6-129">
          <mxGeometry y="162" width="330" height="88" as="geometry" />
        </mxCell>
        <mxCell id="AR9MG2BKAFISzcUvacr6-147" value="Factura" style="swimlane;fontStyle=0;align=center;verticalAlign=top;childLayout=stackLayout;horizontal=1;startSize=26;horizontalStack=0;resizeParent=1;resizeLast=0;collapsible=1;marginBottom=0;rounded=0;shadow=0;strokeWidth=1;" vertex="1" parent="WIyWlLk6GJQsqaUBKTNV-1">
          <mxGeometry x="-120" y="600" width="160" height="236" as="geometry">
            <mxRectangle x="130" y="380" width="160" height="26" as="alternateBounds" />
          </mxGeometry>
        </mxCell>
        <mxCell id="AR9MG2BKAFISzcUvacr6-156" value="&lt;column&gt;" style="text;align=left;verticalAlign=top;spacingLeft=4;spacingRight=4;overflow=hidden;rotatable=0;points=[[0,0.5],[1,0.5]];portConstraint=eastwest;" vertex="1" parent="AR9MG2BKAFISzcUvacr6-147">
          <mxGeometry y="26" width="160" height="26" as="geometry" />
        </mxCell>
        <mxCell id="AR9MG2BKAFISzcUvacr6-148" value="Fecha: varchar" style="text;align=left;verticalAlign=top;spacingLeft=4;spacingRight=4;overflow=hidden;rotatable=0;points=[[0,0.5],[1,0.5]];portConstraint=eastwest;" vertex="1" parent="AR9MG2BKAFISzcUvacr6-147">
          <mxGeometry y="52" width="160" height="26" as="geometry" />
        </mxCell>
        <mxCell id="AR9MG2BKAFISzcUvacr6-149" value="NroFactura: varchar" style="text;align=left;verticalAlign=top;spacingLeft=4;spacingRight=4;overflow=hidden;rotatable=0;points=[[0,0.5],[1,0.5]];portConstraint=eastwest;rounded=0;shadow=0;html=0;" vertex="1" parent="AR9MG2BKAFISzcUvacr6-147">
          <mxGeometry y="78" width="160" height="28" as="geometry" />
        </mxCell>
        <mxCell id="AR9MG2BKAFISzcUvacr6-150" value="TipoFactura: varchar" style="text;align=left;verticalAlign=top;spacingLeft=4;spacingRight=4;overflow=hidden;rotatable=0;points=[[0,0.5],[1,0.5]];portConstraint=eastwest;rounded=0;shadow=0;html=0;" vertex="1" parent="AR9MG2BKAFISzcUvacr6-147">
          <mxGeometry y="106" width="160" height="28" as="geometry" />
        </mxCell>
        <mxCell id="AR9MG2BKAFISzcUvacr6-151" value="Total: double" style="text;align=left;verticalAlign=top;spacingLeft=4;spacingRight=4;overflow=hidden;rotatable=0;points=[[0,0.5],[1,0.5]];portConstraint=eastwest;rounded=0;shadow=0;html=0;" vertex="1" parent="AR9MG2BKAFISzcUvacr6-147">
          <mxGeometry y="134" width="160" height="28" as="geometry" />
        </mxCell>
        <mxCell id="AR9MG2BKAFISzcUvacr6-159" value="*PK IDFactura: varchar" style="text;align=left;verticalAlign=top;spacingLeft=4;spacingRight=4;overflow=hidden;rotatable=0;points=[[0,0.5],[1,0.5]];portConstraint=eastwest;rounded=0;shadow=0;html=0;" vertex="1" parent="AR9MG2BKAFISzcUvacr6-147">
          <mxGeometry y="162" width="160" height="28" as="geometry" />
        </mxCell>
        <mxCell id="AR9MG2BKAFISzcUvacr6-152" value="" style="line;html=1;strokeWidth=1;align=left;verticalAlign=middle;spacingTop=-1;spacingLeft=3;spacingRight=3;rotatable=0;labelPosition=right;points=[];portConstraint=eastwest;" vertex="1" parent="AR9MG2BKAFISzcUvacr6-147">
          <mxGeometry y="190" width="160" height="8" as="geometry" />
        </mxCell>
        <mxCell id="AR9MG2BKAFISzcUvacr6-158" value="&lt;PK&gt; &#xa;+ PK_Factura(varchar)" style="text;align=left;verticalAlign=top;spacingLeft=4;spacingRight=4;overflow=hidden;rotatable=0;points=[[0,0.5],[1,0.5]];portConstraint=eastwest;" vertex="1" parent="AR9MG2BKAFISzcUvacr6-147">
          <mxGeometry y="198" width="160" height="38" as="geometry" />
        </mxCell>
        <mxCell id="AR9MG2BKAFISzcUvacr6-179" value="+FK_Espera_Estado" style="text;html=1;align=center;verticalAlign=middle;resizable=0;points=[];autosize=1;strokeColor=none;fillColor=none;" vertex="1" parent="WIyWlLk6GJQsqaUBKTNV-1">
          <mxGeometry x="85" y="978" width="130" height="30" as="geometry" />
        </mxCell>
        <mxCell id="AR9MG2BKAFISzcUvacr6-180" value="0..1" style="text;html=1;align=center;verticalAlign=middle;resizable=0;points=[];autosize=1;strokeColor=none;fillColor=none;" vertex="1" parent="WIyWlLk6GJQsqaUBKTNV-1">
          <mxGeometry x="220" y="978" width="40" height="30" as="geometry" />
        </mxCell>
        <mxCell id="AR9MG2BKAFISzcUvacr6-181" value="IDEspera= IDEstado" style="text;html=1;align=center;verticalAlign=middle;resizable=0;points=[];autosize=1;strokeColor=none;fillColor=none;" vertex="1" parent="WIyWlLk6GJQsqaUBKTNV-1">
          <mxGeometry x="210" y="950" width="130" height="30" as="geometry" />
        </mxCell>
        <mxCell id="AR9MG2BKAFISzcUvacr6-182" value="+PK_Estado" style="text;html=1;align=center;verticalAlign=middle;resizable=0;points=[];autosize=1;strokeColor=none;fillColor=none;" vertex="1" parent="WIyWlLk6GJQsqaUBKTNV-1">
          <mxGeometry x="325" y="928" width="90" height="30" as="geometry" />
        </mxCell>
        <mxCell id="AR9MG2BKAFISzcUvacr6-183" value="1" style="text;html=1;align=center;verticalAlign=middle;resizable=0;points=[];autosize=1;strokeColor=none;fillColor=none;" vertex="1" parent="WIyWlLk6GJQsqaUBKTNV-1">
          <mxGeometry x="375" y="948" width="30" height="30" as="geometry" />
        </mxCell>
        <mxCell id="AR9MG2BKAFISzcUvacr6-184" value="" style="endArrow=open;endFill=1;endSize=12;html=1;rounded=0;entryX=0.5;entryY=1;entryDx=0;entryDy=0;exitX=0.5;exitY=0;exitDx=0;exitDy=0;" edge="1" parent="WIyWlLk6GJQsqaUBKTNV-1" source="AR9MG2BKAFISzcUvacr6-56" target="AR9MG2BKAFISzcUvacr6-0">
          <mxGeometry width="160" relative="1" as="geometry">
            <mxPoint x="260" y="1010" as="sourcePoint" />
            <mxPoint x="419" y="960" as="targetPoint" />
          </mxGeometry>
        </mxCell>
        <mxCell id="AR9MG2BKAFISzcUvacr6-185" value="+FK_Distribucion_Estado" style="text;html=1;align=center;verticalAlign=middle;resizable=0;points=[];autosize=1;strokeColor=none;fillColor=none;" vertex="1" parent="WIyWlLk6GJQsqaUBKTNV-1">
          <mxGeometry x="440" y="1088" width="160" height="30" as="geometry" />
        </mxCell>
        <mxCell id="AR9MG2BKAFISzcUvacr6-186" value="0..1" style="text;html=1;align=center;verticalAlign=middle;resizable=0;points=[];autosize=1;strokeColor=none;fillColor=none;" vertex="1" parent="WIyWlLk6GJQsqaUBKTNV-1">
          <mxGeometry x="450" y="1065" width="40" height="30" as="geometry" />
        </mxCell>
        <mxCell id="AR9MG2BKAFISzcUvacr6-187" value="IDDistribucion = IDEstado" style="text;html=1;align=center;verticalAlign=middle;resizable=0;points=[];autosize=1;strokeColor=none;fillColor=none;" vertex="1" parent="WIyWlLk6GJQsqaUBKTNV-1">
          <mxGeometry x="420" y="1018" width="160" height="30" as="geometry" />
        </mxCell>
        <mxCell id="AR9MG2BKAFISzcUvacr6-188" value="+PK_Estado" style="text;html=1;align=center;verticalAlign=middle;resizable=0;points=[];autosize=1;strokeColor=none;fillColor=none;" vertex="1" parent="WIyWlLk6GJQsqaUBKTNV-1">
          <mxGeometry x="487" y="950" width="90" height="30" as="geometry" />
        </mxCell>
        <mxCell id="AR9MG2BKAFISzcUvacr6-189" value="1" style="text;html=1;align=center;verticalAlign=middle;resizable=0;points=[];autosize=1;strokeColor=none;fillColor=none;" vertex="1" parent="WIyWlLk6GJQsqaUBKTNV-1">
          <mxGeometry x="450" y="950" width="30" height="30" as="geometry" />
        </mxCell>
        <mxCell id="AR9MG2BKAFISzcUvacr6-192" value="" style="endArrow=open;endFill=1;endSize=12;html=1;rounded=0;entryX=1;entryY=1;entryDx=0;entryDy=0;exitX=0.435;exitY=-0.012;exitDx=0;exitDy=0;exitPerimeter=0;" edge="1" parent="WIyWlLk6GJQsqaUBKTNV-1" source="AR9MG2BKAFISzcUvacr6-27" target="AR9MG2BKAFISzcUvacr6-0">
          <mxGeometry width="160" relative="1" as="geometry">
            <mxPoint x="760" y="1008" as="sourcePoint" />
            <mxPoint x="760" y="848" as="targetPoint" />
          </mxGeometry>
        </mxCell>
        <mxCell id="AR9MG2BKAFISzcUvacr6-194" value="+FK_Finalizado_Estado" style="text;html=1;align=center;verticalAlign=middle;resizable=0;points=[];autosize=1;strokeColor=none;fillColor=none;" vertex="1" parent="WIyWlLk6GJQsqaUBKTNV-1">
          <mxGeometry x="740" y="990" width="150" height="30" as="geometry" />
        </mxCell>
        <mxCell id="AR9MG2BKAFISzcUvacr6-195" value="0..1" style="text;html=1;align=center;verticalAlign=middle;resizable=0;points=[];autosize=1;strokeColor=none;fillColor=none;" vertex="1" parent="WIyWlLk6GJQsqaUBKTNV-1">
          <mxGeometry x="690" y="1000" width="40" height="30" as="geometry" />
        </mxCell>
        <mxCell id="AR9MG2BKAFISzcUvacr6-196" value="IDFinalizado = IDEstado" style="text;html=1;align=center;verticalAlign=middle;resizable=0;points=[];autosize=1;strokeColor=none;fillColor=none;" vertex="1" parent="WIyWlLk6GJQsqaUBKTNV-1">
          <mxGeometry x="660" y="960" width="150" height="30" as="geometry" />
        </mxCell>
        <mxCell id="AR9MG2BKAFISzcUvacr6-197" value="+PK_Estado" style="text;html=1;align=center;verticalAlign=middle;resizable=0;points=[];autosize=1;strokeColor=none;fillColor=none;" vertex="1" parent="WIyWlLk6GJQsqaUBKTNV-1">
          <mxGeometry x="589" y="930" width="90" height="30" as="geometry" />
        </mxCell>
        <mxCell id="AR9MG2BKAFISzcUvacr6-198" value="1" style="text;html=1;align=center;verticalAlign=middle;resizable=0;points=[];autosize=1;strokeColor=none;fillColor=none;" vertex="1" parent="WIyWlLk6GJQsqaUBKTNV-1">
          <mxGeometry x="577" y="920" width="30" height="30" as="geometry" />
        </mxCell>
        <mxCell id="AR9MG2BKAFISzcUvacr6-199" value="" style="endArrow=open;endFill=1;endSize=12;html=1;rounded=0;entryX=0.5;entryY=0;entryDx=0;entryDy=0;exitX=0.493;exitY=1.026;exitDx=0;exitDy=0;exitPerimeter=0;" edge="1" parent="WIyWlLk6GJQsqaUBKTNV-1" source="AR9MG2BKAFISzcUvacr6-19" target="AR9MG2BKAFISzcUvacr6-0">
          <mxGeometry width="160" relative="1" as="geometry">
            <mxPoint x="499" y="712" as="sourcePoint" />
            <mxPoint x="310" y="644" as="targetPoint" />
          </mxGeometry>
        </mxCell>
        <mxCell id="AR9MG2BKAFISzcUvacr6-200" value="0..1" style="text;html=1;align=center;verticalAlign=middle;resizable=0;points=[];autosize=1;strokeColor=none;fillColor=none;" vertex="1" parent="WIyWlLk6GJQsqaUBKTNV-1">
          <mxGeometry x="490" y="644" width="40" height="30" as="geometry" />
        </mxCell>
        <mxCell id="AR9MG2BKAFISzcUvacr6-201" value="+FK_Orden_Estado" style="text;html=1;align=center;verticalAlign=middle;resizable=0;points=[];autosize=1;strokeColor=none;fillColor=none;" vertex="1" parent="WIyWlLk6GJQsqaUBKTNV-1">
          <mxGeometry x="365" y="648" width="130" height="30" as="geometry" />
        </mxCell>
        <mxCell id="AR9MG2BKAFISzcUvacr6-202" value="IDEstado = IDEstado&lt;div&gt;&amp;lt;fk&amp;gt;&lt;/div&gt;" style="text;html=1;align=center;verticalAlign=middle;resizable=0;points=[];autosize=1;strokeColor=none;fillColor=none;" vertex="1" parent="WIyWlLk6GJQsqaUBKTNV-1">
          <mxGeometry x="487" y="683" width="140" height="40" as="geometry" />
        </mxCell>
        <mxCell id="AR9MG2BKAFISzcUvacr6-203" value="+PK_Estado" style="text;html=1;align=center;verticalAlign=middle;resizable=0;points=[];autosize=1;strokeColor=none;fillColor=none;" vertex="1" parent="WIyWlLk6GJQsqaUBKTNV-1">
          <mxGeometry x="495" y="738" width="90" height="30" as="geometry" />
        </mxCell>
        <mxCell id="AR9MG2BKAFISzcUvacr6-204" value="1" style="text;html=1;align=center;verticalAlign=middle;resizable=0;points=[];autosize=1;strokeColor=none;fillColor=none;" vertex="1" parent="WIyWlLk6GJQsqaUBKTNV-1">
          <mxGeometry x="445" y="738" width="30" height="30" as="geometry" />
        </mxCell>
        <mxCell id="AR9MG2BKAFISzcUvacr6-205" value="" style="endArrow=open;endFill=1;endSize=12;html=1;rounded=0;entryX=1;entryY=0.5;entryDx=0;entryDy=0;exitX=0.013;exitY=0.923;exitDx=0;exitDy=0;exitPerimeter=0;" edge="1" parent="WIyWlLk6GJQsqaUBKTNV-1" source="AR9MG2BKAFISzcUvacr6-16" target="AR9MG2BKAFISzcUvacr6-7">
          <mxGeometry width="160" relative="1" as="geometry">
            <mxPoint x="210" y="429" as="sourcePoint" />
            <mxPoint x="211" y="552" as="targetPoint" />
          </mxGeometry>
        </mxCell>
        <mxCell id="AR9MG2BKAFISzcUvacr6-206" value="1..*" style="text;html=1;align=center;verticalAlign=middle;resizable=0;points=[];autosize=1;strokeColor=none;fillColor=none;" vertex="1" parent="WIyWlLk6GJQsqaUBKTNV-1">
          <mxGeometry x="350" y="408" width="40" height="30" as="geometry" />
        </mxCell>
        <mxCell id="AR9MG2BKAFISzcUvacr6-207" value="1" style="text;html=1;align=center;verticalAlign=middle;resizable=0;points=[];autosize=1;strokeColor=none;fillColor=none;" vertex="1" parent="WIyWlLk6GJQsqaUBKTNV-1">
          <mxGeometry x="35" y="408" width="30" height="30" as="geometry" />
        </mxCell>
        <mxCell id="AR9MG2BKAFISzcUvacr6-208" value="+PK_Cliente" style="text;html=1;align=center;verticalAlign=middle;resizable=0;points=[];autosize=1;strokeColor=none;fillColor=none;" vertex="1" parent="WIyWlLk6GJQsqaUBKTNV-1">
          <mxGeometry x="35" y="370" width="90" height="30" as="geometry" />
        </mxCell>
        <mxCell id="AR9MG2BKAFISzcUvacr6-209" value="IDCliente = IDCliente&lt;div&gt;&amp;lt;fk&amp;gt;&lt;/div&gt;" style="text;html=1;align=center;verticalAlign=middle;resizable=0;points=[];autosize=1;strokeColor=none;fillColor=none;" vertex="1" parent="WIyWlLk6GJQsqaUBKTNV-1">
          <mxGeometry x="130" y="403" width="140" height="40" as="geometry" />
        </mxCell>
        <mxCell id="AR9MG2BKAFISzcUvacr6-211" value="+FK_Orden_Cliente" style="text;html=1;align=center;verticalAlign=middle;resizable=0;points=[];autosize=1;strokeColor=none;fillColor=none;" vertex="1" parent="WIyWlLk6GJQsqaUBKTNV-1">
          <mxGeometry x="270" y="370" width="130" height="30" as="geometry" />
        </mxCell>
        <mxCell id="AR9MG2BKAFISzcUvacr6-212" value="" style="endArrow=open;endFill=1;endSize=12;html=1;rounded=0;entryX=1;entryY=0.5;entryDx=0;entryDy=0;exitX=0.013;exitY=0.923;exitDx=0;exitDy=0;exitPerimeter=0;" edge="1" parent="WIyWlLk6GJQsqaUBKTNV-1">
          <mxGeometry width="160" relative="1" as="geometry">
            <mxPoint x="389" y="626" as="sourcePoint" />
            <mxPoint x="37" y="626" as="targetPoint" />
          </mxGeometry>
        </mxCell>
        <mxCell id="AR9MG2BKAFISzcUvacr6-213" value="1" style="text;html=1;align=center;verticalAlign=middle;resizable=0;points=[];autosize=1;strokeColor=none;fillColor=none;" vertex="1" parent="WIyWlLk6GJQsqaUBKTNV-1">
          <mxGeometry x="345" y="618" width="30" height="30" as="geometry" />
        </mxCell>
        <mxCell id="AR9MG2BKAFISzcUvacr6-214" value="+FK_Orden_Factura" style="text;html=1;align=center;verticalAlign=middle;resizable=0;points=[];autosize=1;strokeColor=none;fillColor=none;" vertex="1" parent="WIyWlLk6GJQsqaUBKTNV-1">
          <mxGeometry x="270" y="596" width="130" height="30" as="geometry" />
        </mxCell>
        <mxCell id="AR9MG2BKAFISzcUvacr6-215" value="IDFactura= IDFactura&lt;div&gt;&amp;lt;fk&amp;gt;&lt;/div&gt;" style="text;html=1;align=center;verticalAlign=middle;resizable=0;points=[];autosize=1;strokeColor=none;fillColor=none;" vertex="1" parent="WIyWlLk6GJQsqaUBKTNV-1">
          <mxGeometry x="140" y="623" width="140" height="40" as="geometry" />
        </mxCell>
        <mxCell id="AR9MG2BKAFISzcUvacr6-216" value="1" style="text;html=1;align=center;verticalAlign=middle;resizable=0;points=[];autosize=1;strokeColor=none;fillColor=none;" vertex="1" parent="WIyWlLk6GJQsqaUBKTNV-1">
          <mxGeometry x="40" y="628" width="30" height="30" as="geometry" />
        </mxCell>
        <mxCell id="AR9MG2BKAFISzcUvacr6-217" value="+PK_Factura" style="text;html=1;align=center;verticalAlign=middle;resizable=0;points=[];autosize=1;strokeColor=none;fillColor=none;" vertex="1" parent="WIyWlLk6GJQsqaUBKTNV-1">
          <mxGeometry x="35" y="598" width="90" height="30" as="geometry" />
        </mxCell>
        <mxCell id="AR9MG2BKAFISzcUvacr6-223" value="" style="endArrow=open;endFill=1;endSize=12;html=1;rounded=0;entryX=1;entryY=0.5;entryDx=0;entryDy=0;exitX=0;exitY=0.5;exitDx=0;exitDy=0;" edge="1" parent="WIyWlLk6GJQsqaUBKTNV-1" source="AR9MG2BKAFISzcUvacr6-112" target="AR9MG2BKAFISzcUvacr6-15">
          <mxGeometry width="160" relative="1" as="geometry">
            <mxPoint x="756.5" y="658" as="sourcePoint" />
            <mxPoint x="915.5" y="608" as="targetPoint" />
          </mxGeometry>
        </mxCell>
        <mxCell id="AR9MG2BKAFISzcUvacr6-224" value="0..1" style="text;html=1;align=center;verticalAlign=middle;resizable=0;points=[];autosize=1;strokeColor=none;fillColor=none;" vertex="1" parent="WIyWlLk6GJQsqaUBKTNV-1">
          <mxGeometry x="770" y="368" width="40" height="30" as="geometry" />
        </mxCell>
        <mxCell id="AR9MG2BKAFISzcUvacr6-225" value="1" style="text;html=1;align=center;verticalAlign=middle;resizable=0;points=[];autosize=1;strokeColor=none;fillColor=none;" vertex="1" parent="WIyWlLk6GJQsqaUBKTNV-1">
          <mxGeometry x="595" y="368" width="30" height="30" as="geometry" />
        </mxCell>
        <mxCell id="AR9MG2BKAFISzcUvacr6-227" value="+PK_Orden" style="text;html=1;align=center;verticalAlign=middle;resizable=0;points=[];autosize=1;strokeColor=none;fillColor=none;" vertex="1" parent="WIyWlLk6GJQsqaUBKTNV-1">
          <mxGeometry x="580" y="338" width="90" height="30" as="geometry" />
        </mxCell>
        <mxCell id="AR9MG2BKAFISzcUvacr6-230" value="+FK_DetalleOrden_Orden" style="text;html=1;align=center;verticalAlign=middle;resizable=0;points=[];autosize=1;strokeColor=none;fillColor=none;" vertex="1" parent="WIyWlLk6GJQsqaUBKTNV-1">
          <mxGeometry x="667" y="338" width="160" height="30" as="geometry" />
        </mxCell>
        <mxCell id="AR9MG2BKAFISzcUvacr6-231" value="&lt;div&gt;IDOrden&lt;/div&gt;&lt;div&gt;=&lt;/div&gt;&lt;div&gt;IDOrden&lt;/div&gt;&lt;div&gt;&amp;lt;fk&amp;gt;&lt;/div&gt;" style="text;html=1;align=center;verticalAlign=middle;resizable=0;points=[];autosize=1;strokeColor=none;fillColor=none;" vertex="1" parent="WIyWlLk6GJQsqaUBKTNV-1">
          <mxGeometry x="667" y="368" width="70" height="70" as="geometry" />
        </mxCell>
        <mxCell id="AR9MG2BKAFISzcUvacr6-234" value="" style="endArrow=open;endFill=1;endSize=12;html=1;rounded=0;" edge="1" parent="WIyWlLk6GJQsqaUBKTNV-1">
          <mxGeometry width="160" relative="1" as="geometry">
            <mxPoint x="1000" y="400" as="sourcePoint" />
            <mxPoint x="1270" y="400" as="targetPoint" />
          </mxGeometry>
        </mxCell>
        <mxCell id="AR9MG2BKAFISzcUvacr6-235" value="+FK_DetalleOrden_Material" style="text;html=1;align=center;verticalAlign=middle;resizable=0;points=[];autosize=1;strokeColor=none;fillColor=none;" vertex="1" parent="WIyWlLk6GJQsqaUBKTNV-1">
          <mxGeometry x="980" y="360" width="170" height="30" as="geometry" />
        </mxCell>
        <mxCell id="AR9MG2BKAFISzcUvacr6-236" value="0..1" style="text;html=1;align=center;verticalAlign=middle;resizable=0;points=[];autosize=1;strokeColor=none;fillColor=none;" vertex="1" parent="WIyWlLk6GJQsqaUBKTNV-1">
          <mxGeometry x="990" y="398" width="40" height="30" as="geometry" />
        </mxCell>
        <mxCell id="AR9MG2BKAFISzcUvacr6-237" value="1" style="text;html=1;align=center;verticalAlign=middle;resizable=0;points=[];autosize=1;strokeColor=none;fillColor=none;" vertex="1" parent="WIyWlLk6GJQsqaUBKTNV-1">
          <mxGeometry x="1215" y="368" width="30" height="30" as="geometry" />
        </mxCell>
        <mxCell id="AR9MG2BKAFISzcUvacr6-238" value="+PK_Material" style="text;html=1;align=center;verticalAlign=middle;resizable=0;points=[];autosize=1;strokeColor=none;fillColor=none;" vertex="1" parent="WIyWlLk6GJQsqaUBKTNV-1">
          <mxGeometry x="1180" y="400" width="100" height="30" as="geometry" />
        </mxCell>
        <mxCell id="AR9MG2BKAFISzcUvacr6-239" value="IDMaterial&lt;div&gt;=&lt;/div&gt;&lt;div&gt;IDMaterial&lt;/div&gt;&lt;div&gt;&amp;lt;fk&amp;gt;&lt;/div&gt;" style="text;html=1;align=center;verticalAlign=middle;resizable=0;points=[];autosize=1;strokeColor=none;fillColor=none;" vertex="1" parent="WIyWlLk6GJQsqaUBKTNV-1">
          <mxGeometry x="1090" y="400" width="80" height="70" as="geometry" />
        </mxCell>
        <mxCell id="AR9MG2BKAFISzcUvacr6-244" value="" style="endArrow=open;endFill=1;endSize=12;html=1;rounded=0;entryX=0.25;entryY=0;entryDx=0;entryDy=0;" edge="1" parent="WIyWlLk6GJQsqaUBKTNV-1" target="AR9MG2BKAFISzcUvacr6-31">
          <mxGeometry width="160" relative="1" as="geometry">
            <mxPoint x="1320" y="190" as="sourcePoint" />
            <mxPoint x="1460" y="210" as="targetPoint" />
          </mxGeometry>
        </mxCell>
        <mxCell id="AR9MG2BKAFISzcUvacr6-245" value="0..1" style="text;html=1;align=center;verticalAlign=middle;resizable=0;points=[];autosize=1;strokeColor=none;fillColor=none;" vertex="1" parent="WIyWlLk6GJQsqaUBKTNV-1">
          <mxGeometry x="1260" y="190" width="40" height="30" as="geometry" />
        </mxCell>
        <mxCell id="AR9MG2BKAFISzcUvacr6-246" value="1" style="text;html=1;align=center;verticalAlign=middle;resizable=0;points=[];autosize=1;strokeColor=none;fillColor=none;" vertex="1" parent="WIyWlLk6GJQsqaUBKTNV-1">
          <mxGeometry x="1290" y="270" width="30" height="30" as="geometry" />
        </mxCell>
        <mxCell id="AR9MG2BKAFISzcUvacr6-251" value="+FK_DetallePedidoMaterialPrima_Material" style="text;html=1;align=center;verticalAlign=middle;resizable=0;points=[];autosize=1;strokeColor=none;fillColor=none;" vertex="1" parent="WIyWlLk6GJQsqaUBKTNV-1">
          <mxGeometry x="1285" y="190" width="250" height="30" as="geometry" />
        </mxCell>
        <mxCell id="AR9MG2BKAFISzcUvacr6-252" value="+PK_Material" style="text;html=1;align=center;verticalAlign=middle;resizable=0;points=[];autosize=1;strokeColor=none;fillColor=none;" vertex="1" parent="WIyWlLk6GJQsqaUBKTNV-1">
          <mxGeometry x="1320" y="280" width="100" height="30" as="geometry" />
        </mxCell>
        <mxCell id="AR9MG2BKAFISzcUvacr6-253" value="IDMaterial = IDMaterial&lt;div&gt;&amp;lt;fk&amp;gt;&lt;/div&gt;" style="text;html=1;align=center;verticalAlign=middle;resizable=0;points=[];autosize=1;strokeColor=none;fillColor=none;" vertex="1" parent="WIyWlLk6GJQsqaUBKTNV-1">
          <mxGeometry x="1320" y="231" width="150" height="40" as="geometry" />
        </mxCell>
        <mxCell id="AR9MG2BKAFISzcUvacr6-254" value="" style="endArrow=open;endFill=1;endSize=12;html=1;rounded=0;entryX=1;entryY=0.5;entryDx=0;entryDy=0;" edge="1" parent="WIyWlLk6GJQsqaUBKTNV-1" target="AR9MG2BKAFISzcUvacr6-67">
          <mxGeometry width="160" relative="1" as="geometry">
            <mxPoint x="1140" y="23" as="sourcePoint" />
            <mxPoint x="1110" y="70" as="targetPoint" />
          </mxGeometry>
        </mxCell>
        <mxCell id="AR9MG2BKAFISzcUvacr6-256" value="0..1" style="text;html=1;align=center;verticalAlign=middle;resizable=0;points=[];autosize=1;strokeColor=none;fillColor=none;" vertex="1" parent="WIyWlLk6GJQsqaUBKTNV-1">
          <mxGeometry x="1090" y="18" width="40" height="30" as="geometry" />
        </mxCell>
        <mxCell id="AR9MG2BKAFISzcUvacr6-257" value="1" style="text;html=1;align=center;verticalAlign=middle;resizable=0;points=[];autosize=1;strokeColor=none;fillColor=none;" vertex="1" parent="WIyWlLk6GJQsqaUBKTNV-1">
          <mxGeometry x="909" y="30" width="30" height="30" as="geometry" />
        </mxCell>
        <mxCell id="AR9MG2BKAFISzcUvacr6-258" value="+PK_PedidoMateriaPrima" style="text;html=1;align=center;verticalAlign=middle;resizable=0;points=[];autosize=1;strokeColor=none;fillColor=none;rotation=90;" vertex="1" parent="WIyWlLk6GJQsqaUBKTNV-1">
          <mxGeometry x="850" y="-80" width="160" height="30" as="geometry" />
        </mxCell>
        <mxCell id="AR9MG2BKAFISzcUvacr6-259" value="IDPedidoMateriaPrima&lt;div&gt;=&lt;/div&gt;&lt;div&gt;IDPedidoMateriaPrima&lt;/div&gt;&lt;div&gt;&amp;lt;fk&amp;gt;&lt;/div&gt;" style="text;html=1;align=center;verticalAlign=middle;resizable=0;points=[];autosize=1;strokeColor=none;fillColor=none;" vertex="1" parent="WIyWlLk6GJQsqaUBKTNV-1">
          <mxGeometry x="950" y="30" width="140" height="70" as="geometry" />
        </mxCell>
        <mxCell id="AR9MG2BKAFISzcUvacr6-268" value="" style="endArrow=open;endFill=1;endSize=12;html=1;rounded=0;entryX=0.49;entryY=1.104;entryDx=0;entryDy=0;entryPerimeter=0;exitX=0.467;exitY=-0.007;exitDx=0;exitDy=0;exitPerimeter=0;" edge="1" parent="WIyWlLk6GJQsqaUBKTNV-1" source="AR9MG2BKAFISzcUvacr6-114" target="AR9MG2BKAFISzcUvacr6-174">
          <mxGeometry width="160" relative="1" as="geometry">
            <mxPoint x="1330" y="690" as="sourcePoint" />
            <mxPoint x="1490" y="690" as="targetPoint" />
          </mxGeometry>
        </mxCell>
        <mxCell id="AR9MG2BKAFISzcUvacr6-269" value="+PK_Material" style="text;html=1;align=center;verticalAlign=middle;resizable=0;points=[];autosize=1;strokeColor=none;fillColor=none;" vertex="1" parent="WIyWlLk6GJQsqaUBKTNV-1">
          <mxGeometry x="1360" y="566" width="100" height="30" as="geometry" />
        </mxCell>
        <mxCell id="AR9MG2BKAFISzcUvacr6-270" value="1" style="text;html=1;align=center;verticalAlign=middle;resizable=0;points=[];autosize=1;strokeColor=none;fillColor=none;" vertex="1" parent="WIyWlLk6GJQsqaUBKTNV-1">
          <mxGeometry x="1330" y="560" width="30" height="30" as="geometry" />
        </mxCell>
        <mxCell id="AR9MG2BKAFISzcUvacr6-271" value="+FK_DetalleEntrega_Material" style="text;html=1;align=center;verticalAlign=middle;resizable=0;points=[];autosize=1;strokeColor=none;fillColor=none;" vertex="1" parent="WIyWlLk6GJQsqaUBKTNV-1">
          <mxGeometry x="1370" y="718" width="180" height="30" as="geometry" />
        </mxCell>
        <mxCell id="AR9MG2BKAFISzcUvacr6-272" value="0..1" style="text;html=1;align=center;verticalAlign=middle;resizable=0;points=[];autosize=1;strokeColor=none;fillColor=none;" vertex="1" parent="WIyWlLk6GJQsqaUBKTNV-1">
          <mxGeometry x="1330" y="718" width="40" height="30" as="geometry" />
        </mxCell>
        <mxCell id="AR9MG2BKAFISzcUvacr6-273" value="" style="endArrow=open;endFill=1;endSize=12;html=1;rounded=0;exitX=0.439;exitY=1.044;exitDx=0;exitDy=0;exitPerimeter=0;entryX=0.411;entryY=0.004;entryDx=0;entryDy=0;entryPerimeter=0;" edge="1" parent="WIyWlLk6GJQsqaUBKTNV-1" source="AR9MG2BKAFISzcUvacr6-265" target="AR9MG2BKAFISzcUvacr6-48">
          <mxGeometry width="160" relative="1" as="geometry">
            <mxPoint x="1370" y="1070" as="sourcePoint" />
            <mxPoint x="1530" y="1070" as="targetPoint" />
          </mxGeometry>
        </mxCell>
        <mxCell id="AR9MG2BKAFISzcUvacr6-274" value="+FK_DetalleEntrega_Entrega" style="text;html=1;align=center;verticalAlign=middle;resizable=0;points=[];autosize=1;strokeColor=none;fillColor=none;" vertex="1" parent="WIyWlLk6GJQsqaUBKTNV-1">
          <mxGeometry x="1360" y="1018" width="180" height="30" as="geometry" />
        </mxCell>
        <mxCell id="AR9MG2BKAFISzcUvacr6-275" value="0..1" style="text;html=1;align=center;verticalAlign=middle;resizable=0;points=[];autosize=1;strokeColor=none;fillColor=none;" vertex="1" parent="WIyWlLk6GJQsqaUBKTNV-1">
          <mxGeometry x="1330" y="1018" width="40" height="30" as="geometry" />
        </mxCell>
        <mxCell id="AR9MG2BKAFISzcUvacr6-276" value="IDMaterial = IDMaterial&lt;div&gt;&amp;lt;fk&amp;gt;&lt;/div&gt;" style="text;html=1;align=center;verticalAlign=middle;resizable=0;points=[];autosize=1;strokeColor=none;fillColor=none;" vertex="1" parent="WIyWlLk6GJQsqaUBKTNV-1">
          <mxGeometry x="1360" y="626" width="150" height="40" as="geometry" />
        </mxCell>
        <mxCell id="AR9MG2BKAFISzcUvacr6-278" value="+PK_Entrega" style="text;html=1;align=center;verticalAlign=middle;resizable=0;points=[];autosize=1;strokeColor=none;fillColor=none;" vertex="1" parent="WIyWlLk6GJQsqaUBKTNV-1">
          <mxGeometry x="1360" y="1150" width="100" height="30" as="geometry" />
        </mxCell>
        <mxCell id="AR9MG2BKAFISzcUvacr6-279" value="1" style="text;html=1;align=center;verticalAlign=middle;resizable=0;points=[];autosize=1;strokeColor=none;fillColor=none;" vertex="1" parent="WIyWlLk6GJQsqaUBKTNV-1">
          <mxGeometry x="1330" y="1150" width="30" height="30" as="geometry" />
        </mxCell>
        <mxCell id="AR9MG2BKAFISzcUvacr6-280" value="IDEntrega = IDEntrega&lt;div&gt;&amp;lt;fk&amp;gt;&lt;/div&gt;" style="text;html=1;align=center;verticalAlign=middle;resizable=0;points=[];autosize=1;strokeColor=none;fillColor=none;" vertex="1" parent="WIyWlLk6GJQsqaUBKTNV-1">
          <mxGeometry x="1350" y="1078" width="150" height="40" as="geometry" />
        </mxCell>
        <mxCell id="AR9MG2BKAFISzcUvacr6-287" value="" style="endArrow=open;endFill=1;endSize=12;html=1;rounded=0;exitX=0;exitY=0.5;exitDx=0;exitDy=0;entryX=1.013;entryY=-0.192;entryDx=0;entryDy=0;entryPerimeter=0;" edge="1" parent="WIyWlLk6GJQsqaUBKTNV-1" source="AR9MG2BKAFISzcUvacr6-282" target="AR9MG2BKAFISzcUvacr6-35">
          <mxGeometry width="160" relative="1" as="geometry">
            <mxPoint x="1510" y="500" as="sourcePoint" />
            <mxPoint x="1670" y="500" as="targetPoint" />
          </mxGeometry>
        </mxCell>
        <mxCell id="AR9MG2BKAFISzcUvacr6-288" value="+FK_Stock_Producto" style="text;html=1;align=center;verticalAlign=middle;resizable=0;points=[];autosize=1;strokeColor=none;fillColor=none;rotation=90;" vertex="1" parent="WIyWlLk6GJQsqaUBKTNV-1">
          <mxGeometry x="1630" y="360" width="140" height="30" as="geometry" />
        </mxCell>
        <mxCell id="AR9MG2BKAFISzcUvacr6-291" value="0..1" style="text;html=1;align=center;verticalAlign=middle;resizable=0;points=[];autosize=1;strokeColor=none;fillColor=none;" vertex="1" parent="WIyWlLk6GJQsqaUBKTNV-1">
          <mxGeometry x="1680" y="430" width="40" height="30" as="geometry" />
        </mxCell>
        <mxCell id="AR9MG2BKAFISzcUvacr6-292" value="+PK_Material" style="text;html=1;align=center;verticalAlign=middle;resizable=0;points=[];autosize=1;strokeColor=none;fillColor=none;" vertex="1" parent="WIyWlLk6GJQsqaUBKTNV-1">
          <mxGeometry x="1470" y="398" width="100" height="30" as="geometry" />
        </mxCell>
        <mxCell id="AR9MG2BKAFISzcUvacr6-293" value="1" style="text;html=1;align=center;verticalAlign=middle;resizable=0;points=[];autosize=1;strokeColor=none;fillColor=none;" vertex="1" parent="WIyWlLk6GJQsqaUBKTNV-1">
          <mxGeometry x="1460" y="430" width="30" height="30" as="geometry" />
        </mxCell>
        <mxCell id="AR9MG2BKAFISzcUvacr6-294" value="IDMaterial&lt;div&gt;=&lt;/div&gt;&lt;div&gt;IDMaterial&lt;/div&gt;&lt;div&gt;&amp;lt;fk&amp;gt;&lt;/div&gt;" style="text;html=1;align=center;verticalAlign=middle;resizable=0;points=[];autosize=1;strokeColor=none;fillColor=none;" vertex="1" parent="WIyWlLk6GJQsqaUBKTNV-1">
          <mxGeometry x="1560" y="430" width="80" height="70" as="geometry" />
        </mxCell>
        <mxCell id="AR9MG2BKAFISzcUvacr6-295" value="" style="endArrow=open;endFill=1;endSize=12;html=1;rounded=0;exitX=0.539;exitY=1.04;exitDx=0;exitDy=0;exitPerimeter=0;entryX=0.435;entryY=-0.021;entryDx=0;entryDy=0;entryPerimeter=0;" edge="1" parent="WIyWlLk6GJQsqaUBKTNV-1" source="AR9MG2BKAFISzcUvacr6-286" target="AR9MG2BKAFISzcUvacr6-41">
          <mxGeometry width="160" relative="1" as="geometry">
            <mxPoint x="1760" y="670" as="sourcePoint" />
            <mxPoint x="1920" y="670" as="targetPoint" />
          </mxGeometry>
        </mxCell>
        <mxCell id="AR9MG2BKAFISzcUvacr6-296" value="+FK_Stock_Deposito" style="text;html=1;align=center;verticalAlign=middle;resizable=0;points=[];autosize=1;strokeColor=none;fillColor=none;" vertex="1" parent="WIyWlLk6GJQsqaUBKTNV-1">
          <mxGeometry x="1790" y="585" width="140" height="30" as="geometry" />
        </mxCell>
        <mxCell id="AR9MG2BKAFISzcUvacr6-297" value="0..1" style="text;html=1;align=center;verticalAlign=middle;resizable=0;points=[];autosize=1;strokeColor=none;fillColor=none;" vertex="1" parent="WIyWlLk6GJQsqaUBKTNV-1">
          <mxGeometry x="1760" y="585" width="40" height="30" as="geometry" />
        </mxCell>
        <mxCell id="AR9MG2BKAFISzcUvacr6-298" value="+PK_Deposito" style="text;html=1;align=center;verticalAlign=middle;resizable=0;points=[];autosize=1;strokeColor=none;fillColor=none;" vertex="1" parent="WIyWlLk6GJQsqaUBKTNV-1">
          <mxGeometry x="1800" y="800" width="100" height="30" as="geometry" />
        </mxCell>
        <mxCell id="AR9MG2BKAFISzcUvacr6-299" value="1" style="text;html=1;align=center;verticalAlign=middle;resizable=0;points=[];autosize=1;strokeColor=none;fillColor=none;" vertex="1" parent="WIyWlLk6GJQsqaUBKTNV-1">
          <mxGeometry x="1765" y="800" width="30" height="30" as="geometry" />
        </mxCell>
        <mxCell id="AR9MG2BKAFISzcUvacr6-300" value="IDDeposito = IDDeposito&lt;div&gt;&amp;lt;fk&amp;gt;&lt;/div&gt;" style="text;html=1;align=center;verticalAlign=middle;resizable=0;points=[];autosize=1;strokeColor=none;fillColor=none;" vertex="1" parent="WIyWlLk6GJQsqaUBKTNV-1">
          <mxGeometry x="1790" y="683" width="160" height="40" as="geometry" />
        </mxCell>
        <mxCell id="AR9MG2BKAFISzcUvacr6-307" value="" style="endArrow=open;endFill=1;endSize=12;html=1;rounded=0;exitX=0.209;exitY=1.048;exitDx=0;exitDy=0;exitPerimeter=0;entryX=1.022;entryY=0.064;entryDx=0;entryDy=0;entryPerimeter=0;" edge="1" parent="WIyWlLk6GJQsqaUBKTNV-1" source="AR9MG2BKAFISzcUvacr6-306" target="AR9MG2BKAFISzcUvacr6-31">
          <mxGeometry width="160" relative="1" as="geometry">
            <mxPoint x="1550" y="270" as="sourcePoint" />
            <mxPoint x="1710" y="270" as="targetPoint" />
          </mxGeometry>
        </mxCell>
        <mxCell id="AR9MG2BKAFISzcUvacr6-308" value="+PK_Material" style="text;html=1;align=center;verticalAlign=middle;resizable=0;points=[];autosize=1;strokeColor=none;fillColor=none;" vertex="1" parent="WIyWlLk6GJQsqaUBKTNV-1">
          <mxGeometry x="1460" y="330" width="100" height="30" as="geometry" />
        </mxCell>
        <mxCell id="AR9MG2BKAFISzcUvacr6-309" value="1" style="text;html=1;align=center;verticalAlign=middle;resizable=0;points=[];autosize=1;strokeColor=none;fillColor=none;" vertex="1" parent="WIyWlLk6GJQsqaUBKTNV-1">
          <mxGeometry x="1465" y="288" width="30" height="30" as="geometry" />
        </mxCell>
        <mxCell id="AR9MG2BKAFISzcUvacr6-310" value="+FK_DetalleOrdenProduccion_Material" style="text;html=1;align=center;verticalAlign=middle;resizable=0;points=[];autosize=1;strokeColor=none;fillColor=none;" vertex="1" parent="WIyWlLk6GJQsqaUBKTNV-1">
          <mxGeometry x="1755" y="220" width="230" height="30" as="geometry" />
        </mxCell>
        <mxCell id="AR9MG2BKAFISzcUvacr6-311" value="0..1" style="text;html=1;align=center;verticalAlign=middle;resizable=0;points=[];autosize=1;strokeColor=none;fillColor=none;" vertex="1" parent="WIyWlLk6GJQsqaUBKTNV-1">
          <mxGeometry x="1680" y="218" width="40" height="30" as="geometry" />
        </mxCell>
        <mxCell id="AR9MG2BKAFISzcUvacr6-312" value="IDMaterial = IDMaterial&lt;div&gt;&amp;lt;fk&amp;gt;&lt;/div&gt;" style="text;html=1;align=center;verticalAlign=middle;resizable=0;points=[];autosize=1;strokeColor=none;fillColor=none;" vertex="1" parent="WIyWlLk6GJQsqaUBKTNV-1">
          <mxGeometry x="1525" y="248" width="150" height="40" as="geometry" />
        </mxCell>
        <mxCell id="AR9MG2BKAFISzcUvacr6-313" value="" style="endArrow=open;endFill=1;endSize=12;html=1;rounded=0;entryX=0.336;entryY=1.021;entryDx=0;entryDy=0;entryPerimeter=0;" edge="1" parent="WIyWlLk6GJQsqaUBKTNV-1" target="AR9MG2BKAFISzcUvacr6-327">
          <mxGeometry width="160" relative="1" as="geometry">
            <mxPoint x="2040" y="80" as="sourcePoint" />
            <mxPoint x="2193" y="-120" as="targetPoint" />
            <Array as="points">
              <mxPoint x="2195" y="80" />
            </Array>
          </mxGeometry>
        </mxCell>
        <mxCell id="AR9MG2BKAFISzcUvacr6-314" value="+FK_DetalleOrdenProduccion_OrdenProduccion" style="text;html=1;align=center;verticalAlign=middle;resizable=0;points=[];autosize=1;strokeColor=none;fillColor=none;" vertex="1" parent="WIyWlLk6GJQsqaUBKTNV-1">
          <mxGeometry x="2035" y="88" width="280" height="30" as="geometry" />
        </mxCell>
        <mxCell id="AR9MG2BKAFISzcUvacr6-315" value="0..1" style="text;html=1;align=center;verticalAlign=middle;resizable=0;points=[];autosize=1;strokeColor=none;fillColor=none;" vertex="1" parent="WIyWlLk6GJQsqaUBKTNV-1">
          <mxGeometry x="2040" y="48" width="40" height="30" as="geometry" />
        </mxCell>
        <mxCell id="AR9MG2BKAFISzcUvacr6-316" value="+PK_OrdenProduccion" style="text;html=1;align=center;verticalAlign=middle;resizable=0;points=[];autosize=1;strokeColor=none;fillColor=none;" vertex="1" parent="WIyWlLk6GJQsqaUBKTNV-1">
          <mxGeometry x="2190" y="-150" width="150" height="30" as="geometry" />
        </mxCell>
        <mxCell id="AR9MG2BKAFISzcUvacr6-317" value="1" style="text;html=1;align=center;verticalAlign=middle;resizable=0;points=[];autosize=1;strokeColor=none;fillColor=none;" vertex="1" parent="WIyWlLk6GJQsqaUBKTNV-1">
          <mxGeometry x="2160" y="-154" width="30" height="30" as="geometry" />
        </mxCell>
        <mxCell id="AR9MG2BKAFISzcUvacr6-318" value="IDOrdenProduccion&lt;div&gt;=&lt;/div&gt;&lt;div&gt;IDOrdenProduccion&lt;/div&gt;&lt;div&gt;&amp;lt;fk&amp;gt;&lt;/div&gt;" style="text;html=1;align=center;verticalAlign=middle;resizable=0;points=[];autosize=1;strokeColor=none;fillColor=none;" vertex="1" parent="WIyWlLk6GJQsqaUBKTNV-1">
          <mxGeometry x="2070" y="-90" width="130" height="70" as="geometry" />
        </mxCell>
        <mxCell id="AR9MG2BKAFISzcUvacr6-319" value="" style="endArrow=open;endFill=1;endSize=12;html=1;rounded=0;exitX=0.002;exitY=0.159;exitDx=0;exitDy=0;entryX=0.5;entryY=0;entryDx=0;entryDy=0;exitPerimeter=0;" edge="1" parent="WIyWlLk6GJQsqaUBKTNV-1" source="AR9MG2BKAFISzcUvacr6-322" target="AR9MG2BKAFISzcUvacr6-66">
          <mxGeometry width="160" relative="1" as="geometry">
            <mxPoint x="1460" y="-290" as="sourcePoint" />
            <mxPoint x="1620" y="-290" as="targetPoint" />
            <Array as="points">
              <mxPoint x="794" y="-305" />
            </Array>
          </mxGeometry>
        </mxCell>
        <mxCell id="AR9MG2BKAFISzcUvacr6-320" value="1" style="text;html=1;align=center;verticalAlign=middle;resizable=0;points=[];autosize=1;strokeColor=none;fillColor=none;" vertex="1" parent="WIyWlLk6GJQsqaUBKTNV-1">
          <mxGeometry x="2040" y="-302" width="30" height="30" as="geometry" />
        </mxCell>
        <mxCell id="AR9MG2BKAFISzcUvacr6-321" value="+FK_OrdenProduccion_PedidoMateriaPrima" style="text;html=1;align=center;verticalAlign=middle;resizable=0;points=[];autosize=1;strokeColor=none;fillColor=none;" vertex="1" parent="WIyWlLk6GJQsqaUBKTNV-1">
          <mxGeometry x="1810" y="-340" width="260" height="30" as="geometry" />
        </mxCell>
        <mxCell id="AR9MG2BKAFISzcUvacr6-324" value="IDPedidoMateriaPrima = IDPedidoMateriaPrima&lt;div&gt;&amp;lt;fk&amp;gt;&lt;/div&gt;" style="text;html=1;align=center;verticalAlign=middle;resizable=0;points=[];autosize=1;strokeColor=none;fillColor=none;" vertex="1" parent="WIyWlLk6GJQsqaUBKTNV-1">
          <mxGeometry x="1210" y="-345" width="280" height="40" as="geometry" />
        </mxCell>
        <mxCell id="AR9MG2BKAFISzcUvacr6-325" value="1" style="text;html=1;align=center;verticalAlign=middle;resizable=0;points=[];autosize=1;strokeColor=none;fillColor=none;" vertex="1" parent="WIyWlLk6GJQsqaUBKTNV-1">
          <mxGeometry x="790" y="-80" width="30" height="30" as="geometry" />
        </mxCell>
        <mxCell id="AR9MG2BKAFISzcUvacr6-326" value="+PK_PedidoMateriaPrima" style="text;html=1;align=center;verticalAlign=middle;resizable=0;points=[];autosize=1;strokeColor=none;fillColor=none;" vertex="1" parent="WIyWlLk6GJQsqaUBKTNV-1">
          <mxGeometry x="630" y="-80" width="160" height="30" as="geometry" />
        </mxCell>
        <mxCell id="AR9MG2BKAFISzcUvacr6-328" value="" style="endArrow=open;endFill=1;endSize=12;html=1;rounded=0;" edge="1" parent="WIyWlLk6GJQsqaUBKTNV-1">
          <mxGeometry width="160" relative="1" as="geometry">
            <mxPoint x="2410" y="-160" as="sourcePoint" />
            <mxPoint x="2410" y="330" as="targetPoint" />
          </mxGeometry>
        </mxCell>
        <mxCell id="AR9MG2BKAFISzcUvacr6-329" value="+PK_Empleado" style="text;html=1;align=center;verticalAlign=middle;resizable=0;points=[];autosize=1;strokeColor=none;fillColor=none;" vertex="1" parent="WIyWlLk6GJQsqaUBKTNV-1">
          <mxGeometry x="2305" y="298" width="110" height="30" as="geometry" />
        </mxCell>
        <mxCell id="AR9MG2BKAFISzcUvacr6-330" value="1" style="text;html=1;align=center;verticalAlign=middle;resizable=0;points=[];autosize=1;strokeColor=none;fillColor=none;" vertex="1" parent="WIyWlLk6GJQsqaUBKTNV-1">
          <mxGeometry x="2415" y="298" width="30" height="30" as="geometry" />
        </mxCell>
        <mxCell id="AR9MG2BKAFISzcUvacr6-331" value="1..*" style="text;html=1;align=center;verticalAlign=middle;resizable=0;points=[];autosize=1;strokeColor=none;fillColor=none;" vertex="1" parent="WIyWlLk6GJQsqaUBKTNV-1">
          <mxGeometry x="2375" y="-162" width="40" height="30" as="geometry" />
        </mxCell>
        <mxCell id="AR9MG2BKAFISzcUvacr6-332" value="+FK_OrdenProduccion_Empleado" style="text;html=1;align=center;verticalAlign=middle;resizable=0;points=[];autosize=1;strokeColor=none;fillColor=none;rotation=90;" vertex="1" parent="WIyWlLk6GJQsqaUBKTNV-1">
          <mxGeometry x="2330" y="-70" width="210" height="30" as="geometry" />
        </mxCell>
        <mxCell id="AR9MG2BKAFISzcUvacr6-333" value="IDEmpleado = IDEmpleado&lt;div&gt;&amp;lt;fk&amp;gt;&lt;/div&gt;" style="text;html=1;align=center;verticalAlign=middle;resizable=0;points=[];autosize=1;strokeColor=none;fillColor=none;" vertex="1" parent="WIyWlLk6GJQsqaUBKTNV-1">
          <mxGeometry x="2400" y="130" width="170" height="40" as="geometry" />
        </mxCell>
        <mxCell id="AR9MG2BKAFISzcUvacr6-335" value="DER" style="shape=umlFrame;whiteSpace=wrap;html=1;pointerEvents=0;" vertex="1" parent="WIyWlLk6GJQsqaUBKTNV-1">
          <mxGeometry x="-180" y="-520" width="2790" height="1930" as="geometry" />
        </mxCell>
      </root>
    </mxGraphModel>
  </diagram>
</mxfile>
